<svg width="49" height="48" viewBox="0 0 49 48" fill="none" xmlns="http://www.w3.org/2000/svg">
<path d="M41.3438 0.75H38.2812C38.0782 0.75 37.8835 0.829018 37.7399 0.96967C37.5963 1.11032 37.5156 1.30109 37.5156 1.5V6H32.9219C32.9238 5.56483 32.7964 5.13852 32.5551 4.77315C32.3137 4.40778 31.969 4.11917 31.563 3.94258C31.157 3.76599 30.7073 3.70906 30.2688 3.77875C29.8302 3.84844 29.422 4.04172 29.0938 4.335C28.6763 3.95878 28.1297 3.74997 27.5625 3.74997C26.9953 3.74997 26.4487 3.95878 26.0312 4.335C25.703 4.04172 25.2948 3.84844 24.8562 3.77875C24.4177 3.70906 23.968 3.76599 23.562 3.94258C23.156 4.11917 22.8113 4.40778 22.5699 4.77315C22.3286 5.13852 22.2012 5.56483 22.2031 6H11.4844V1.5C11.4844 1.30109 11.4037 1.11032 11.2601 0.96967C11.1165 0.829018 10.9218 0.75 10.7188 0.75H7.65625C7.45319 0.75 7.25845 0.829018 7.11487 0.96967C6.97129 1.11032 6.89062 1.30109 6.89062 1.5V46.5C6.89062 46.6989 6.97129 46.8897 7.11487 47.0303C7.25845 47.171 7.45319 47.25 7.65625 47.25H10.7188C10.9218 47.25 11.1165 47.171 11.2601 47.0303C11.4037 46.8897 11.4844 46.6989 11.4844 46.5V39.75H20.6719C20.6719 40.3467 20.9139 40.919 21.3446 41.341C21.7754 41.7629 22.3596 42 22.9688 42C23.5779 42 24.1621 41.7629 24.5929 41.341C25.0236 40.919 25.2656 40.3467 25.2656 39.75H27.5625C27.5605 40.1852 27.688 40.6115 27.9293 40.9768C28.1706 41.3422 28.5154 41.6308 28.9214 41.8074C29.3274 41.984 29.7771 42.0409 30.2156 41.9713C30.6541 41.9016 31.0624 41.7083 31.3906 41.415C31.7188 41.7083 32.1271 41.9016 32.5656 41.9713C33.0041 42.0409 33.4539 41.984 33.8599 41.8074C34.2659 41.6308 34.6106 41.3422 34.8519 40.9768C35.0933 40.6115 35.2207 40.1852 35.2188 39.75H37.5156V46.5C37.5156 46.6989 37.5963 46.8897 37.7399 47.0303C37.8835 47.171 38.0782 47.25 38.2812 47.25H41.3438C41.5468 47.25 41.7415 47.171 41.8851 47.0303C42.0287 46.8897 42.1094 46.6989 42.1094 46.5V1.5C42.1094 1.30109 42.0287 1.11032 41.8851 0.96967C41.7415 0.829018 41.5468 0.75 41.3438 0.75ZM9.95312 45.75H8.42188V2.25H9.95312V45.75ZM37.5156 7.5V9H32.9219V7.5H37.5156ZM32.9219 33C32.355 33.002 31.8092 33.2105 31.3906 33.585C31.0624 33.2917 30.6541 33.0984 30.2156 33.0287C29.7771 32.9591 29.3274 33.016 28.9214 33.1926C28.5154 33.3692 28.1706 33.6578 27.9293 34.0232C27.688 34.3885 27.5605 34.8148 27.5625 35.25H25.2656C25.2656 34.6533 25.0236 34.081 24.5929 33.659C24.1621 33.2371 23.5779 33 22.9688 33C22.3596 33 21.7754 33.2371 21.3446 33.659C20.9139 34.081 20.6719 34.6533 20.6719 35.25H11.4844V30H17.6094C17.6074 30.4352 17.7349 30.8615 17.9762 31.2268C18.2175 31.5922 18.5622 31.8808 18.9682 32.0574C19.3743 32.234 19.824 32.2909 20.2625 32.2213C20.701 32.1516 21.1093 31.9583 21.4375 31.665C21.855 32.0412 22.4015 32.25 22.9688 32.25C23.536 32.25 24.0825 32.0412 24.5 31.665C24.8282 31.9583 25.2365 32.1516 25.675 32.2213C26.1135 32.2909 26.5632 32.234 26.9693 32.0574C27.3753 31.8808 27.72 31.5922 27.9613 31.2268C28.2026 30.8615 28.3301 30.4352 28.3281 30H37.5156V35.25H35.2188C35.2188 34.6533 34.9768 34.081 34.546 33.659C34.1153 33.2371 33.531 33 32.9219 33ZM17.6094 28.5H11.4844V27H17.6094V28.5ZM25.2656 25.5C25.2656 25.3011 25.3463 25.1103 25.4899 24.9697C25.6335 24.829 25.8282 24.75 26.0312 24.75C26.2343 24.75 26.429 24.829 26.5726 24.9697C26.7162 25.1103 26.7969 25.3011 26.7969 25.5V30C26.7969 30.1989 26.7162 30.3897 26.5726 30.5303C26.429 30.671 26.2343 30.75 26.0312 30.75C25.8282 30.75 25.6335 30.671 25.4899 30.5303C25.3463 30.3897 25.2656 30.1989 25.2656 30V25.5ZM23.7344 30C23.7344 30.1989 23.6537 30.3897 23.5101 30.5303C23.3665 30.671 23.1718 30.75 22.9688 30.75C22.7657 30.75 22.571 30.671 22.4274 30.5303C22.2838 30.3897 22.2031 30.1989 22.2031 30V25.5C22.2031 25.3011 22.2838 25.1103 22.4274 24.9697C22.571 24.829 22.7657 24.75 22.9688 24.75C23.1718 24.75 23.3665 24.829 23.5101 24.9697C23.6537 25.1103 23.7344 25.3011 23.7344 25.5V30ZM20.6719 30C20.6719 30.1989 20.5912 30.3897 20.4476 30.5303C20.304 30.671 20.1093 30.75 19.9062 30.75C19.7032 30.75 19.5085 30.671 19.3649 30.5303C19.2213 30.3897 19.1406 30.1989 19.1406 30V25.5C19.1406 25.3011 19.2213 25.1103 19.3649 24.9697C19.5085 24.829 19.7032 24.75 19.9062 24.75C20.1093 24.75 20.304 24.829 20.4476 24.9697C20.5912 25.1103 20.6719 25.3011 20.6719 25.5V30ZM28.3281 28.5V27H37.5156V28.5H28.3281ZM28.3281 25.5C28.3301 25.0648 28.2026 24.6385 27.9613 24.2732C27.72 23.9078 27.3753 23.6192 26.9693 23.4426C26.5632 23.266 26.1135 23.2091 25.675 23.2787C25.2365 23.3484 24.8282 23.5417 24.5 23.835C24.0825 23.4588 23.536 23.25 22.9688 23.25C22.4015 23.25 21.855 23.4588 21.4375 23.835C21.1093 23.5417 20.701 23.3484 20.2625 23.2787C19.824 23.2091 19.3743 23.266 18.9682 23.4426C18.5622 23.6192 18.2175 23.9078 17.9762 24.2732C17.7349 24.6385 17.6074 25.0648 17.6094 25.5H11.4844V20.25H22.2031C22.2012 20.6852 22.3286 21.1115 22.5699 21.4768C22.8113 21.8422 23.156 22.1308 23.562 22.3074C23.968 22.484 24.4177 22.5409 24.8562 22.4713C25.2948 22.4016 25.703 22.2083 26.0312 21.915C26.3595 22.2083 26.7677 22.4016 27.2063 22.4713C27.6448 22.5409 28.0945 22.484 28.5005 22.3074C28.9065 22.1308 29.2512 21.8422 29.4926 21.4768C29.7339 21.1115 29.8613 20.6852 29.8594 20.25H31.3906C31.3906 20.8467 31.6326 21.419 32.0634 21.841C32.4941 22.2629 33.0783 22.5 33.6875 22.5C34.2967 22.5 34.8809 22.2629 35.3116 21.841C35.7424 21.419 35.9844 20.8467 35.9844 20.25H37.5156V25.5H28.3281ZM22.2031 18.75H11.4844V17.25H22.2031V18.75ZM26.7969 15.75C26.7969 15.5511 26.8775 15.3603 27.0211 15.2197C27.1647 15.079 27.3594 15 27.5625 15C27.7656 15 27.9603 15.079 28.1039 15.2197C28.2475 15.3603 28.3281 15.5511 28.3281 15.75V20.25C28.3281 20.4489 28.2475 20.6397 28.1039 20.7803C27.9603 20.921 27.7656 21 27.5625 21C27.3594 21 27.1647 20.921 27.0211 20.7803C26.8775 20.6397 26.7969 20.4489 26.7969 20.25V15.75ZM25.2656 20.25C25.2656 20.4489 25.185 20.6397 25.0414 20.7803C24.8978 20.921 24.7031 21 24.5 21C24.2969 21 24.1022 20.921 23.9586 20.7803C23.815 20.6397 23.7344 20.4489 23.7344 20.25V15.75C23.7344 15.5511 23.815 15.3603 23.9586 15.2197C24.1022 15.079 24.2969 15 24.5 15C24.7031 15 24.8978 15.079 25.0414 15.2197C25.185 15.3603 25.2656 15.5511 25.2656 15.75V20.25ZM29.8594 17.25H31.3906V18.75H29.8594V17.25ZM32.9219 20.25V15.75C32.9219 15.5511 33.0025 15.3603 33.1461 15.2197C33.2897 15.079 33.4844 15 33.6875 15C33.8906 15 34.0853 15.079 34.2289 15.2197C34.3725 15.3603 34.4531 15.5511 34.4531 15.75V20.25C34.4531 20.4489 34.3725 20.6397 34.2289 20.7803C34.0853 20.921 33.8906 21 33.6875 21C33.4844 21 33.2897 20.921 33.1461 20.7803C33.0025 20.6397 32.9219 20.4489 32.9219 20.25ZM35.9844 18.75V17.25H37.5156V18.75H35.9844ZM35.9844 15.75C35.9844 15.1533 35.7424 14.581 35.3116 14.159C34.8809 13.7371 34.2967 13.5 33.6875 13.5C33.0783 13.5 32.4941 13.7371 32.0634 14.159C31.6326 14.581 31.3906 15.1533 31.3906 15.75H29.8594C29.8613 15.3148 29.7339 14.8885 29.4926 14.5232C29.2512 14.1578 28.9065 13.8692 28.5005 13.6926C28.0945 13.516 27.6448 13.4591 27.2063 13.5287C26.7677 13.5984 26.3595 13.7917 26.0312 14.085C25.703 13.7917 25.2948 13.5984 24.8562 13.5287C24.4177 13.4591 23.968 13.516 23.562 13.6926C23.156 13.8692 22.8113 14.1578 22.5699 14.5232C22.3286 14.8885 22.2012 15.3148 22.2031 15.75H11.4844V10.5H22.2031C22.2012 10.9352 22.3286 11.3615 22.5699 11.7268C22.8113 12.0922 23.156 12.3808 23.562 12.5574C23.968 12.734 24.4177 12.7909 24.8562 12.7213C25.2948 12.6516 25.703 12.4583 26.0312 12.165C26.4487 12.5412 26.9953 12.75 27.5625 12.75C28.1297 12.75 28.6763 12.5412 29.0938 12.165C29.422 12.4583 29.8302 12.6516 30.2688 12.7213C30.7073 12.7909 31.157 12.734 31.563 12.5574C31.969 12.3808 32.3137 12.0922 32.5551 11.7268C32.7964 11.3615 32.9238 10.9352 32.9219 10.5H37.5156V15.75H35.9844ZM30.625 5.25C30.8281 5.25 31.0228 5.32902 31.1664 5.46967C31.31 5.61032 31.3906 5.80109 31.3906 6V10.5C31.3906 10.6989 31.31 10.8897 31.1664 11.0303C31.0228 11.171 30.8281 11.25 30.625 11.25C30.4219 11.25 30.2272 11.171 30.0836 11.0303C29.94 10.8897 29.8594 10.6989 29.8594 10.5V6C29.8594 5.80109 29.94 5.61032 30.0836 5.46967C30.2272 5.32902 30.4219 5.25 30.625 5.25ZM27.5625 5.25C27.7656 5.25 27.9603 5.32902 28.1039 5.46967C28.2475 5.61032 28.3281 5.80109 28.3281 6V10.5C28.3281 10.6989 28.2475 10.8897 28.1039 11.0303C27.9603 11.171 27.7656 11.25 27.5625 11.25C27.3594 11.25 27.1647 11.171 27.0211 11.0303C26.8775 10.8897 26.7969 10.6989 26.7969 10.5V6C26.7969 5.80109 26.8775 5.61032 27.0211 5.46967C27.1647 5.32902 27.3594 5.25 27.5625 5.25ZM23.7344 6C23.7344 5.80109 23.815 5.61032 23.9586 5.46967C24.1022 5.32902 24.2969 5.25 24.5 5.25C24.7031 5.25 24.8978 5.32902 25.0414 5.46967C25.185 5.61032 25.2656 5.80109 25.2656 6V10.5C25.2656 10.6989 25.185 10.8897 25.0414 11.0303C24.8978 11.171 24.7031 11.25 24.5 11.25C24.2969 11.25 24.1022 11.171 23.9586 11.0303C23.815 10.8897 23.7344 10.6989 23.7344 10.5V6ZM22.2031 7.5V9H11.4844V7.5H22.2031ZM11.4844 38.25V36.75H20.6719V38.25H11.4844ZM23.7344 39.75C23.7344 39.9489 23.6537 40.1397 23.5101 40.2803C23.3665 40.421 23.1718 40.5 22.9688 40.5C22.7657 40.5 22.571 40.421 22.4274 40.2803C22.2838 40.1397 22.2031 39.9489 22.2031 39.75V35.25C22.2031 35.0511 22.2838 34.8603 22.4274 34.7197C22.571 34.579 22.7657 34.5 22.9688 34.5C23.1718 34.5 23.3665 34.579 23.5101 34.7197C23.6537 34.8603 23.7344 35.0511 23.7344 35.25V39.75ZM25.2656 38.25V36.75H27.5625V38.25H25.2656ZM29.8594 40.5C29.6563 40.5 29.4616 40.421 29.318 40.2803C29.1744 40.1397 29.0938 39.9489 29.0938 39.75V35.25C29.0938 35.0511 29.1744 34.8603 29.318 34.7197C29.4616 34.579 29.6563 34.5 29.8594 34.5C30.0624 34.5 30.2572 34.579 30.4008 34.7197C30.5443 34.8603 30.625 35.0511 30.625 35.25V39.75C30.625 39.9489 30.5443 40.1397 30.4008 40.2803C30.2572 40.421 30.0624 40.5 29.8594 40.5ZM33.6875 39.75C33.6875 39.9489 33.6068 40.1397 33.4633 40.2803C33.3197 40.421 33.1249 40.5 32.9219 40.5C32.7188 40.5 32.5241 40.421 32.3805 40.2803C32.2369 40.1397 32.1562 39.9489 32.1562 39.75V35.25C32.1562 35.0511 32.2369 34.8603 32.3805 34.7197C32.5241 34.579 32.7188 34.5 32.9219 34.5C33.1249 34.5 33.3197 34.579 33.4633 34.7197C33.6068 34.8603 33.6875 35.0511 33.6875 35.25V39.75ZM35.2188 38.25V36.75H37.5156V38.25H35.2188ZM40.5781 45.75H39.0469V2.25H40.5781V45.75Z" fill="#333333"/>
</svg>
