<svg width="40" height="38" viewBox="0 0 40 38" fill="none" xmlns="http://www.w3.org/2000/svg">
<path d="M19.6671 16.0601C17.9901 16.0601 16.6571 17.3621 16.6571 19.0001C16.6571 20.6381 17.9901 21.9401 19.6671 21.9401C21.3441 21.9401 22.6771 20.6381 22.6771 19.0001C22.6771 17.3621 21.3441 16.0601 19.6671 16.0601ZM19.6671 20.2601C18.9361 20.2601 18.3771 19.6721 18.3771 19.0001C18.3771 18.2861 18.9361 17.7401 19.6671 17.7401C20.3981 17.7401 20.9571 18.2861 20.9571 19.0001C20.9571 19.6721 20.3981 20.2601 19.6671 20.2601ZM19.6671 0.100098C9.00314 0.100098 0.317139 8.5841 0.317139 19.0001C0.317139 29.4161 9.00314 37.9001 19.6671 37.9001C30.3311 37.9001 39.0171 29.4161 39.0171 19.0001C39.0171 8.5841 30.3311 0.100098 19.6671 0.100098ZM19.6671 36.2201C9.94914 36.2201 2.03714 28.4921 2.03714 19.0001C2.03714 9.5081 9.94914 1.7801 19.6671 1.7801C29.3851 1.7801 37.2971 9.5081 37.2971 19.0001C37.2971 28.4921 29.3851 36.2201 19.6671 36.2201ZM19.6671 4.3001C11.3681 4.3001 4.61714 10.8941 4.61714 19.0001C4.61714 27.1061 11.3681 33.7001 19.6671 33.7001C27.9661 33.7001 34.7171 27.1061 34.7171 19.0001C34.7171 10.8941 27.9661 4.3001 19.6671 4.3001ZM32.6531 16.1021H25.1711L24.9991 15.8081L28.7401 9.4661C30.6751 11.2301 32.0511 13.4981 32.6531 16.1021ZM19.6671 5.9801C21.0431 5.9801 22.3761 6.1901 23.6231 6.5681L19.8821 12.9101H19.4951L15.7541 6.5681C16.9581 6.1901 18.2911 5.9801 19.6671 5.9801ZM10.5941 9.4661L14.3351 15.8081L14.1631 16.1021H6.68114C7.28314 13.4981 8.65914 11.2301 10.5941 9.4661ZM6.68114 21.8981H14.1631L14.3351 22.1921L10.5941 28.5341C8.65914 26.7701 7.28314 24.5021 6.68114 21.8981ZM19.6671 32.0201C18.2911 32.0201 16.9581 31.8101 15.7111 31.4321L19.4521 25.0901H19.8391L23.5801 31.4321C22.3761 31.8101 21.0431 32.0201 19.6671 32.0201ZM28.7401 28.5341L24.9991 22.1921L25.1711 21.8981H32.6531C32.0511 24.5021 30.6751 26.7701 28.7401 28.5341ZM32.9541 20.2181H24.6551C24.3541 20.2181 24.0531 20.3861 23.9241 20.6381L23.2361 21.7721C23.0641 22.0241 23.0641 22.3601 23.2361 22.6121L27.3641 29.5841C27.1491 29.7521 26.8911 29.9201 26.6331 30.0461L25.9021 30.4661C25.6871 30.5921 25.4291 30.7181 25.1711 30.8021L21.0431 23.8301C20.9141 23.5781 20.6131 23.4101 20.3121 23.4101H18.9361C18.6351 23.4101 18.3341 23.5781 18.2051 23.8301L14.0771 30.8021C13.8191 30.6761 13.6041 30.5921 13.3461 30.4661L12.6151 30.0461C12.3571 29.8781 12.1421 29.7521 11.8841 29.5841L16.0121 22.6121C16.1841 22.3601 16.1841 22.0241 16.0121 21.7721L15.3241 20.6381C15.1521 20.3861 14.8941 20.2181 14.5931 20.2181H6.38014C6.38014 19.9661 6.33714 19.6721 6.33714 19.4201V18.5801C6.33714 18.3281 6.38014 18.0341 6.38014 17.7821H14.6361C14.9371 17.7821 15.2381 17.6141 15.3671 17.3621L16.0551 16.2281C16.2271 15.9761 16.2271 15.6401 16.0551 15.3881L11.9271 8.3741C12.1421 8.2061 12.4001 8.0381 12.6581 7.9121L13.3461 7.5341C13.5611 7.4081 13.8191 7.2821 14.0771 7.1981L18.2051 14.2121C18.3341 14.4641 18.6351 14.6321 18.9361 14.6321H20.3121C20.6131 14.6321 20.9141 14.4641 21.0431 14.2121L25.1711 7.1981C25.4291 7.3241 25.6441 7.4081 25.9021 7.5341L26.5901 7.9121C26.8481 8.0801 27.0631 8.2061 27.3211 8.3741L23.1931 15.3881C23.0211 15.6401 23.0211 15.9761 23.1931 16.2281L23.8811 17.3621C24.0531 17.6141 24.3111 17.7821 24.6121 17.7821H32.8681C32.9111 18.0341 32.9111 18.3281 32.9111 18.5801V19.4201C32.9971 19.6721 32.9541 19.9241 32.9541 20.2181Z" fill="#333333"/>
</svg>
