<svg width="37" height="36" viewBox="0 0 37 36" fill="none" xmlns="http://www.w3.org/2000/svg">
<path d="M27.9292 7.36658H9.93354C9.70742 7.36689 9.49066 7.45685 9.33077 7.61674C9.17089 7.77663 9.08093 7.99339 9.08061 8.2195V26.8813C9.05173 26.9403 9.03235 27.0044 9.03235 27.074C9.03235 27.1436 9.05173 27.2077 9.08061 27.2667V27.883C9.08135 28.591 9.3629 29.2699 9.86352 29.7706C10.3641 30.2712 11.0429 30.5529 11.7509 30.5537H26.1114C26.8195 30.553 27.4984 30.2714 27.9991 29.7707C28.4998 29.27 28.7814 28.5911 28.7821 27.883V8.2195C28.7817 7.99342 28.6917 7.77672 28.5318 7.61685C28.372 7.45699 28.1553 7.367 27.9292 7.36658ZM27.892 8.25669V16.4849C27.5878 16.6744 24.0523 18.762 18.3168 17.4335L16.6837 15.8009C16.2814 15.3973 15.5776 15.3977 15.1757 15.8005L14.2128 16.7634C12.2075 16.6866 10.669 16.9968 9.97072 17.1776V8.25669H27.892ZM17.8128 18.4376L16.0539 20.1952C16.0209 20.2282 15.9761 20.2466 15.9294 20.2465C15.8828 20.2465 15.8381 20.2279 15.8051 20.1948L14.0466 18.438C14.0137 18.4048 13.9953 18.36 13.9953 18.3133C13.9953 18.2667 14.0137 18.2219 14.0466 18.1887L14.5629 17.6725C15.4657 17.7286 16.4563 17.8695 17.4999 18.1468C17.6154 18.1777 17.7285 18.2042 17.8425 18.2322C17.8598 18.2652 17.8662 18.3028 17.8609 18.3397C17.8556 18.3766 17.8387 18.4108 17.8128 18.4376ZM15.3858 16.8492L15.8051 16.4299C15.8214 16.4135 15.8409 16.4006 15.8622 16.3917C15.8836 16.3829 15.9065 16.3784 15.9296 16.3784C15.9527 16.3784 15.9756 16.383 15.9969 16.3919C16.0183 16.4008 16.0376 16.4139 16.0539 16.4303L16.6727 17.0486C16.2465 16.965 15.8172 16.8985 15.3858 16.8492ZM26.1114 29.6636H11.7505C10.7691 29.6636 9.97033 28.8645 9.97033 27.883V27.5191H26.0928C26.2108 27.5191 26.324 27.4722 26.4075 27.3887C26.491 27.3052 26.5378 27.192 26.5378 27.074C26.5378 26.956 26.491 26.8428 26.4075 26.7593C26.324 26.6758 26.2108 26.6289 26.0928 26.6289H9.97033V18.1013C10.3493 17.9925 11.5963 17.6764 13.3456 17.6468C13.1801 17.8507 13.0958 18.1085 13.1089 18.3708C13.122 18.6331 13.2315 18.8813 13.4164 19.0678L15.1745 20.8242C15.2732 20.9239 15.3907 21.0029 15.5202 21.0567C15.6498 21.1105 15.7887 21.138 15.9289 21.1376C16.2138 21.1376 16.4816 21.0264 16.6829 20.825L18.4426 19.0666C18.6106 18.8961 18.7159 18.6736 18.7413 18.4356C19.9518 18.6745 21.0623 18.7703 22.0659 18.7703C24.9926 18.7703 27.0011 17.9557 27.8916 17.5035V27.8834C27.8912 28.3554 27.7035 28.808 27.3697 29.1418C27.036 29.4755 26.5834 29.6632 26.1114 29.6636Z" fill="#333333"/>
<path d="M24.1462 21.465C24.1124 21.329 24.0521 21.2011 23.9687 21.0884C23.8854 20.9758 23.7807 20.8807 23.6606 20.8086C23.5404 20.7365 23.4073 20.6888 23.2687 20.6683C23.1301 20.6477 22.9888 20.6547 22.8529 20.6888L20.4398 21.2925C20.1658 21.362 19.9305 21.537 19.7852 21.7794C19.6398 22.0217 19.5963 22.3117 19.664 22.5861L20.2673 24.9973C20.301 25.1333 20.3613 25.2613 20.4446 25.374C20.5279 25.4866 20.6327 25.5818 20.7528 25.6539C20.8729 25.726 21.0061 25.7738 21.1447 25.7944C21.2833 25.8149 21.4246 25.808 21.5605 25.7739L23.9737 25.171C24.2475 25.1013 24.4825 24.9262 24.6277 24.6839C24.7728 24.4415 24.8161 24.1516 24.7483 23.8774L24.1462 21.465ZM23.7569 24.307L21.3449 24.9095C21.3225 24.9152 21.2991 24.9165 21.2762 24.9131C21.2532 24.9098 21.2312 24.9019 21.2114 24.89C21.1915 24.8781 21.1742 24.8623 21.1604 24.8437C21.1467 24.825 21.1368 24.8038 21.1313 24.7813L20.528 22.3701C20.5166 22.3247 20.5237 22.2766 20.5477 22.2364C20.5718 22.1962 20.6108 22.1672 20.6562 22.1557L23.0693 21.552C23.1146 21.5414 23.1622 21.5489 23.202 21.5728C23.2418 21.5967 23.2707 21.6353 23.2826 21.6802L23.8851 24.093C23.8962 24.1383 23.889 24.1863 23.865 24.2263C23.841 24.2664 23.8022 24.2954 23.7569 24.307Z" fill="#333333"/>
</svg>
