<svg width="33" height="32" viewBox="0 0 33 32" fill="none" xmlns="http://www.w3.org/2000/svg">
<path fill-rule="evenodd" clip-rule="evenodd" d="M11.803 3.00604C11.467 3.03271 11.1398 3.12686 10.841 3.28288C10.5422 3.43889 10.2779 3.65356 10.064 3.91404C9.721 4.33404 9.552 4.84404 9.525 5.36704C9.25081 5.33252 8.97296 5.33994 8.701 5.38904C8.28868 5.47105 7.9009 5.64731 7.568 5.90404C7.2352 6.16161 6.96589 6.49205 6.78074 6.86997C6.5956 7.24788 6.49956 7.66321 6.5 8.08404L6.506 8.97104L6.504 8.98104V9.05204L6.502 9.25904L6.5 10.241V11.022C6.5 11.742 6.904 12.365 7.492 12.704V25.69C7.492 26.96 8.525 28 9.793 28H20.199C21.467 28 22.5 26.96 22.5 25.69V24.02H24.666C25.1509 24.0203 25.6162 23.8284 25.96 23.4864C26.3037 23.1443 26.4979 22.68 26.5 22.195V13.826C26.4981 13.3409 26.3041 12.8764 25.9603 12.5341C25.6165 12.1918 25.1511 11.9998 24.666 12H22.5V10.494C22.992 10.124 23.35 9.57904 23.463 8.93404C23.5645 8.34284 23.4503 7.73485 23.1413 7.22075C22.8322 6.70666 22.3488 6.32066 21.779 6.13304C21.6698 5.79049 21.4827 5.47792 21.2323 5.2199C20.9819 4.96189 20.6751 4.76545 20.336 4.64604C19.9191 4.50427 19.4705 4.4838 19.0425 4.58701C18.6144 4.69022 18.2245 4.91287 17.918 5.22904C17.6771 4.8999 17.3718 4.62323 17.0206 4.41589C16.6693 4.20856 16.2796 4.07489 15.875 4.02304C15.2945 3.95234 14.7059 4.05315 14.182 4.31304C14.0093 3.9891 13.7671 3.7074 13.4726 3.48817C13.1782 3.26894 12.8389 3.11761 12.479 3.04504C12.2565 3.00111 12.0291 2.98765 11.803 3.00504V3.00604ZM11.881 4.00404C12.19 3.98025 12.4986 4.05351 12.764 4.2136C13.0293 4.37369 13.238 4.61262 13.361 4.89704C13.258 5.00091 13.1627 5.11221 13.076 5.23004C13.0373 5.28316 13.0094 5.34339 12.9939 5.40729C12.9784 5.47119 12.9757 5.53751 12.9859 5.60247C13.0064 5.73365 13.0782 5.8513 13.1855 5.92954C13.2928 6.00778 13.4267 6.0402 13.5579 6.01966C13.6229 6.00949 13.6852 5.98663 13.7413 5.95238C13.7974 5.91813 13.8463 5.87316 13.885 5.82004C14.0947 5.53223 14.3775 5.30571 14.7041 5.16395C15.0308 5.0222 15.3894 4.97036 15.7428 5.01381C16.0962 5.05726 16.4316 5.19442 16.7142 5.41108C16.9968 5.62774 17.2163 5.91601 17.35 6.24604C17.3488 6.36458 17.3897 6.4797 17.4655 6.57084C17.5413 6.66199 17.6471 6.72324 17.7638 6.74367C17.8806 6.76409 18.0008 6.74236 18.1031 6.68235C18.2053 6.62234 18.2829 6.52796 18.322 6.41604C18.3776 6.25028 18.4656 6.09721 18.5808 5.96573C18.696 5.83424 18.8363 5.72697 18.9933 5.65012C19.1503 5.57327 19.3211 5.52839 19.4956 5.51807C19.6702 5.50776 19.845 5.53222 20.01 5.59004C20.707 5.83104 21.074 6.58404 20.836 7.29004C20.8128 7.35274 20.8025 7.41945 20.8055 7.48622C20.8086 7.553 20.825 7.61848 20.8538 7.6788C20.8826 7.73913 20.9232 7.79306 20.9732 7.83742C21.0232 7.88177 21.0816 7.91565 21.1449 7.93705C21.2083 7.95845 21.2752 7.96693 21.3419 7.962C21.4086 7.95707 21.4736 7.93882 21.533 7.90833C21.5925 7.87784 21.6453 7.83574 21.6882 7.7845C21.7312 7.73327 21.7634 7.67394 21.783 7.61004C21.821 7.49804 21.841 7.38404 21.861 7.27104C22.327 7.59704 22.581 8.16704 22.477 8.76004C22.4134 9.13031 22.2125 9.463 21.9145 9.69173C21.6164 9.92045 21.2431 10.0284 20.869 9.99404C20.4946 9.96237 20.1458 9.79085 19.8921 9.51363C19.6384 9.23641 19.4984 8.87382 19.5 8.49804C19.5013 8.40309 19.4756 8.30973 19.4258 8.22888C19.376 8.14803 19.3042 8.08303 19.2188 8.04149C19.1334 7.99995 19.0379 7.98358 18.9436 7.99431C18.8492 8.00503 18.7599 8.0424 18.686 8.10204C18.4632 8.03622 18.2323 8.00189 18 8.00004C17.3369 8.0011 16.7014 8.26511 16.2327 8.73415C15.764 9.20319 15.5005 9.83898 15.5 10.502C15.4995 10.5407 15.5036 10.5793 15.512 10.617C15.5038 10.6538 15.4998 10.6914 15.5 10.729V13.039C15.5 13.573 15.07 14 14.5 14C13.93 14 13.5 13.573 13.5 13.04V10.516C13.5 9.43304 12.595 8.55604 11.506 8.55604H11.494V8.55504C10.404 8.55504 9.5 9.43004 9.5 10.514V10.729C9.49821 10.7413 9.49688 10.7537 9.496 10.766L9.49 11.012C9.48996 11.0157 9.48996 11.0194 9.49 11.023C9.49 11.551 9.059 11.979 8.498 11.979H8.492C8.36456 11.9862 8.23698 11.9674 8.11707 11.9236C7.99716 11.8799 7.88743 11.8121 7.79458 11.7245C7.70174 11.6369 7.62773 11.5313 7.57708 11.4141C7.52643 11.297 7.50021 11.1707 7.5 11.043V10.316H7.506V9.06004L7.5 8.08404C7.5 7.53904 7.751 7.02604 8.18 6.69504C8.607 6.36504 9.158 6.25604 9.678 6.39504C9.684 6.41204 9.684 6.43004 9.691 6.44704C9.74206 6.56957 9.83969 6.6668 9.96244 6.71734C10.0852 6.76788 10.223 6.76759 10.3455 6.71654C10.468 6.66549 10.5653 6.56785 10.6158 6.44511C10.6663 6.32236 10.6661 6.18457 10.615 6.06204C10.5109 5.8131 10.4767 5.5405 10.516 5.27356C10.5553 5.00661 10.6666 4.75544 10.838 4.54704C11.1 4.22704 11.478 4.03504 11.881 4.00404ZM18 9.00004C18.203 9.00004 18.403 9.05404 18.594 9.13704C18.7246 9.63284 19.0045 10.0765 19.3957 10.4079C19.7869 10.7394 20.2705 10.9426 20.781 10.99C21.028 11.012 21.267 10.986 21.5 10.937V25.69C21.5 26.427 20.927 27.001 20.2 27.001H9.792C9.064 27.001 8.492 26.427 8.492 25.691V12.978H8.497C9.585 12.978 10.489 12.104 10.489 11.022L10.493 10.842C10.4976 10.8149 10.4999 10.7875 10.5 10.76V10.514C10.5 9.98504 10.932 9.55404 11.494 9.55404H11.506C12.068 9.55404 12.5 9.98504 12.5 10.514V13.039C12.5 14.124 13.407 15 14.5 15C15.593 15 16.5 14.124 16.5 13.04V10.729C16.5005 10.69 16.4965 10.6511 16.488 10.613C16.4961 10.5766 16.5002 10.5394 16.5 10.502C16.4997 10.3049 16.5383 10.1096 16.6136 9.9274C16.6889 9.74518 16.7993 9.57959 16.9386 9.44009C17.0779 9.30059 17.2434 9.18992 17.4255 9.11441C17.6076 9.0389 17.8029 9.00004 18 9.00004ZM22.5 13H24.666C25.166 13 25.5 13.334 25.5 13.826V22.196C25.5 22.687 25.166 23.021 24.666 23.021H22.5V13ZM10.992 15.346C10.9263 15.3471 10.8615 15.361 10.8013 15.3871C10.741 15.4132 10.6865 15.451 10.6408 15.4981C10.5951 15.5453 10.5591 15.601 10.535 15.6621C10.5108 15.7231 10.4989 15.7884 10.5 15.854V24.797C10.5 24.9296 10.5527 25.0568 10.6464 25.1506C10.7402 25.2444 10.8674 25.297 11 25.297C11.1326 25.297 11.2598 25.2444 11.3536 25.1506C11.4473 25.0568 11.5 24.9296 11.5 24.797V15.854C11.5011 15.787 11.4887 15.7205 11.4635 15.6584C11.4384 15.5962 11.401 15.5398 11.3536 15.4924C11.3062 15.445 11.2498 15.4077 11.1877 15.3825C11.1256 15.3574 11.059 15.345 10.992 15.346ZM14.992 15.346C14.9263 15.3471 14.8615 15.361 14.8013 15.3871C14.741 15.4132 14.6865 15.451 14.6408 15.4981C14.5951 15.5453 14.5591 15.601 14.535 15.6621C14.5108 15.7231 14.4989 15.7884 14.5 15.854V24.797C14.5 24.9296 14.5527 25.0568 14.6464 25.1506C14.7402 25.2444 14.8674 25.297 15 25.297C15.1326 25.297 15.2598 25.2444 15.3536 25.1506C15.4473 25.0568 15.5 24.9296 15.5 24.797V15.854C15.5011 15.787 15.4887 15.7205 15.4635 15.6584C15.4384 15.5962 15.401 15.5398 15.3536 15.4924C15.3062 15.445 15.2498 15.4077 15.1877 15.3825C15.1256 15.3574 15.059 15.345 14.992 15.346ZM18.992 15.346C18.9263 15.3471 18.8615 15.361 18.8013 15.3871C18.741 15.4132 18.6865 15.451 18.6408 15.4981C18.5951 15.5453 18.5591 15.601 18.535 15.6621C18.5108 15.7231 18.4989 15.7884 18.5 15.854V24.797C18.5 24.9296 18.5527 25.0568 18.6464 25.1506C18.7402 25.2444 18.8674 25.297 19 25.297C19.1326 25.297 19.2598 25.2444 19.3536 25.1506C19.4473 25.0568 19.5 24.9296 19.5 24.797V15.854C19.5011 15.787 19.4887 15.7205 19.4635 15.6584C19.4384 15.5962 19.401 15.5398 19.3536 15.4924C19.3062 15.445 19.2498 15.4077 19.1877 15.3825C19.1256 15.3574 19.059 15.345 18.992 15.346Z" fill="#333333"/>
</svg>
