<svg width="45" height="44" viewBox="0 0 45 44" fill="none" xmlns="http://www.w3.org/2000/svg">
<path fill-rule="evenodd" clip-rule="evenodd" d="M22.6664 1.8335C11.5363 1.8335 2.49976 10.87 2.49976 22.0002C2.49976 33.1303 11.5363 42.1668 22.6664 42.1668C33.7966 42.1668 42.8331 33.1303 42.8331 22.0002C42.8331 10.87 33.7966 1.8335 22.6664 1.8335ZM22.6664 3.66683C32.7846 3.66683 40.9998 11.882 40.9998 22.0002C40.9998 32.1183 32.7846 40.3335 22.6664 40.3335C12.5483 40.3335 4.33309 32.1183 4.33309 22.0002C4.33309 11.882 12.5483 3.66683 22.6664 3.66683ZM23.5831 7.3335C16.5 7.3335 10.7498 13.0837 10.7498 20.1668C10.7498 27.2499 16.5 33.0002 23.5831 33.0002C30.6662 33.0002 36.4164 27.2499 36.4164 20.1668C36.4164 13.0837 30.6662 7.3335 23.5831 7.3335ZM23.5831 9.16683C29.6542 9.16683 34.5831 14.0957 34.5831 20.1668C34.5831 26.2379 29.6542 31.1668 23.5831 31.1668C17.512 31.1668 12.5831 26.2379 12.5831 20.1668C12.5831 14.0957 17.512 9.16683 23.5831 9.16683ZM21.1576 20.1668C21.1008 20.1164 21.0448 20.0642 20.9908 20.0092C20.3023 19.3217 19.9164 18.3894 19.9164 17.4168C19.9164 17.1134 19.9164 16.8036 19.9164 16.5002C19.9164 15.5276 20.3023 14.5953 20.9908 13.9078C21.6783 13.2194 22.6105 12.8335 23.5831 12.8335C24.5557 12.8335 25.4879 13.2194 26.1754 13.9078C26.8638 14.5953 27.2498 15.5276 27.2498 16.5002V17.4168C27.2498 18.3894 26.8638 19.3217 26.1754 20.0092C26.1213 20.0642 26.0654 20.1164 26.0086 20.1668C26.0654 20.2172 26.1213 20.2695 26.1754 20.3245C26.8638 21.012 27.2498 21.9442 27.2498 22.9168V23.8335C27.2498 24.8061 26.8638 25.7383 26.1754 26.4258C25.4879 27.1142 24.5557 27.5002 23.5831 27.5002C22.6105 27.5002 21.6783 27.1142 20.9908 26.4258C20.3023 25.7383 19.9164 24.8061 19.9164 23.8335C19.9164 23.5301 19.9164 23.2202 19.9164 22.9168C19.9164 21.9442 20.3023 21.012 20.9908 20.3245C21.0448 20.2695 21.1008 20.2172 21.1576 20.1668ZM23.5831 21.0835C23.0973 21.0835 22.6307 21.2769 22.2869 21.6207C21.9432 21.9644 21.7498 22.431 21.7498 22.9168C21.7498 23.2202 21.7498 23.5301 21.7498 23.8335C21.7498 24.3193 21.9432 24.7859 22.2869 25.1297C22.6307 25.4734 23.0973 25.6668 23.5831 25.6668C24.0689 25.6668 24.5355 25.4734 24.8793 25.1297C25.223 24.7859 25.4164 24.3193 25.4164 23.8335V22.9168C25.4164 22.431 25.223 21.9644 24.8793 21.6207C24.5355 21.2769 24.0689 21.0835 23.5831 21.0835ZM23.5831 19.2502C24.0689 19.2502 24.5355 19.0567 24.8793 18.713C25.223 18.3692 25.4164 17.9027 25.4164 17.4168V16.5002C25.4164 16.0143 25.223 15.5477 24.8793 15.204C24.5355 14.8602 24.0689 14.6668 23.5831 14.6668C23.0973 14.6668 22.6307 14.8602 22.2869 15.204C21.9432 15.5477 21.7498 16.0143 21.7498 16.5002C21.7498 16.8036 21.7498 17.1134 21.7498 17.4168C21.7498 17.9027 21.9432 18.3692 22.2869 18.713C22.6307 19.0567 23.0973 19.2502 23.5831 19.2502Z" fill="#333333"/>
</svg>
