<svg width="54" height="54" viewBox="0 0 54 54" fill="none" xmlns="http://www.w3.org/2000/svg">
<path d="M35.8108 22.3874C35.405 21.6256 34.9827 20.872 34.3947 20.019C33.6263 18.852 33.0373 17.5763 32.6473 16.2345C32.6444 16.1876 32.6444 16.1406 32.6473 16.0937C32.3466 15.0321 32.1934 13.9342 32.1919 12.8309V11.3982V10.1478C32.2431 8.829 31.8057 7.53775 30.9637 6.52151C30.1217 5.50528 28.9342 4.83556 27.6289 4.64073C26.9512 4.56771 26.2656 4.6408 25.6185 4.85507C24.9714 5.06935 24.3777 5.41984 23.8775 5.88292C23.3181 6.39645 22.8723 7.02121 22.5685 7.71715C22.2648 8.41309 22.1098 9.16483 22.1136 9.92417V12.7812C22.1172 13.9498 21.9527 15.1128 21.625 16.2345C21.5256 16.5823 21.4014 16.9384 21.2689 17.2862C21.1364 16.9301 21.0039 16.5823 20.9045 16.2262C20.9016 16.1793 20.9016 16.1323 20.9045 16.0854C20.6038 15.0238 20.4506 13.9259 20.4491 12.8226V11.3982V10.1478C20.5002 8.829 20.0629 7.53775 19.2209 6.52151C18.3788 5.50528 17.1914 4.83556 15.8861 4.64073C15.2083 4.56771 14.5228 4.6408 13.8757 4.85507C13.2286 5.06935 12.6349 5.41984 12.1347 5.88292C11.5753 6.39645 11.1295 7.02121 10.8257 7.71715C10.5219 8.41309 10.367 9.16483 10.3708 9.92417V12.7812C10.3744 13.9498 10.2098 15.1128 9.88219 16.2345C9.50221 17.5811 8.91554 18.8606 8.14312 20.0273C6.33781 22.7849 5.0625 25.0954 5.0625 29.6915C5.0625 35.8528 7.17422 45.3182 10.2052 49.0531L10.437 49.3595H20.3745L20.623 49.0448C20.8676 48.7407 21.0943 48.4228 21.302 48.0924C21.5098 48.4228 21.7365 48.7407 21.9811 49.0448L22.2295 49.3595H32.167L32.4155 49.0448L32.4652 48.9703C33.4676 49.2205 34.4961 49.3512 35.5292 49.3595C39.0543 49.3171 42.4227 47.8964 44.9135 45.4017C47.4043 42.9069 48.8195 39.5362 48.8563 36.0111C48.8931 32.486 47.5485 29.0865 45.1104 26.5403C42.6722 23.9941 39.3342 22.5034 35.8108 22.3874ZM30.7923 15.6217H23.48C23.48 15.5223 23.48 15.4229 23.5297 15.3318C23.5794 15.0751 23.6208 14.8101 23.6539 14.5534L23.7036 14.0979C23.7036 13.8495 23.7036 13.601 23.7533 13.3526C23.7533 13.2532 23.7533 13.1539 23.7533 13.0545H30.4859C30.4897 13.1152 30.4897 13.176 30.4859 13.2367C30.4859 13.5514 30.4859 13.866 30.5439 14.1724C30.5439 14.2801 30.5439 14.3795 30.5439 14.4871C30.5439 14.8267 30.6433 15.1662 30.7095 15.4974C30.7841 15.5389 30.7841 15.5803 30.7923 15.6217ZM24.9872 7.1251C25.3196 6.81993 25.7128 6.58842 26.1409 6.44571C26.5691 6.303 27.0225 6.25232 27.4716 6.29698C28.3571 6.45862 29.1536 6.93668 29.7128 7.6421C30.2719 8.34752 30.5556 9.23217 30.5108 10.1312V11.3817H23.7698V9.95729C23.7637 9.42637 23.8688 8.90005 24.0785 8.41225C24.2882 7.92445 24.5977 7.48598 24.9872 7.1251ZM19.0495 15.6217H11.7372C11.7418 15.5362 11.7418 15.4505 11.7372 15.3649C11.7952 15.0917 11.8366 14.8184 11.8697 14.5368L11.9194 14.1145C11.9194 13.8495 11.9608 13.5928 11.9691 13.2864C11.9691 13.1953 11.9691 13.1042 11.9691 13.0131H18.7017C18.7017 13.0793 18.7017 13.1373 18.7017 13.1953C18.7017 13.5099 18.7017 13.8246 18.7597 14.131C18.7597 14.2387 18.7597 14.3381 18.7597 14.4457C18.8011 14.7853 18.8508 15.1248 18.917 15.456L19.0495 15.6217ZM13.2444 7.1251C13.5768 6.81993 13.97 6.58842 14.3981 6.44571C14.8262 6.303 15.2797 6.25232 15.7287 6.29698C16.6143 6.45862 17.4108 6.93668 17.97 7.6421C18.5291 8.34752 18.8127 9.23217 18.768 10.1312V11.3817H12.027V9.95729C12.0209 9.42637 12.126 8.90005 12.3357 8.41225C12.5454 7.92445 12.8549 7.48598 13.2444 7.1251ZM11.2652 47.7032C8.64828 44.1175 6.71875 35.389 6.71875 29.6915C6.71875 25.5509 7.77875 23.6048 9.53437 20.9299C10.2659 19.7921 10.8476 18.5646 11.2652 17.2779H19.5464C19.7751 17.9645 20.0519 18.6342 20.3745 19.282C20.2172 19.5553 20.0681 19.8037 19.9191 20.019C18.1138 22.7849 16.8384 25.0954 16.8384 29.6915C16.8384 34.2876 18.122 41.7159 20.3745 46.3782C20.129 46.8383 19.8523 47.281 19.5464 47.7032H11.2652ZM23.0163 47.7032C22.6435 47.1787 22.314 46.6248 22.0308 46.047C19.8114 41.6414 18.4864 34.2793 18.4864 29.7081C18.4864 25.5674 19.5464 23.6214 21.2938 20.9465C21.5256 20.5987 21.7575 20.2095 22.0225 19.7209C22.4355 18.9428 22.7818 18.1311 23.0577 17.2945H31.2809C31.7002 18.5834 32.2877 19.8113 33.0283 20.9465C33.3927 21.4931 33.7073 21.9982 33.9889 22.4868C31.1593 22.8366 28.5129 24.0727 26.4288 26.0183C24.3446 27.9639 22.9296 30.5192 22.3864 33.3181C21.8432 36.117 22.1996 39.016 23.4046 41.6C24.6096 44.184 26.6014 46.3204 29.0947 47.7032H23.0163ZM35.5292 47.7032C33.1829 47.7213 30.8841 47.0419 28.9246 45.7513C26.965 44.4607 25.433 42.6171 24.5229 40.4544C23.6129 38.2917 23.3658 35.9074 23.8131 33.604C24.2603 31.3007 25.3818 29.1821 27.0351 27.5172C28.6884 25.8522 30.799 24.7159 33.0992 24.2525C35.3994 23.7891 37.7853 24.0194 39.9544 24.9142C42.1234 25.8091 43.9778 27.3281 45.2821 29.2785C46.5864 31.229 47.2819 33.5229 47.2803 35.8693C47.2869 38.9956 46.0536 41.9969 43.8508 44.2152C41.648 46.4335 38.6554 47.6879 35.5292 47.7032Z" fill="#333333"/>
<path d="M42.3121 37.0369C42.1056 37.1346 41.9465 37.3104 41.8696 37.5255C41.7927 37.7406 41.8044 37.9774 41.9022 38.1839C41.9999 38.3903 42.1756 38.5495 42.3907 38.6264C42.6058 38.7032 42.8427 38.6915 43.0491 38.5938C43.1503 38.5462 43.2409 38.4786 43.3152 38.3951C43.3896 38.3116 43.4463 38.2139 43.4819 38.1079C43.5175 38.0019 43.5313 37.8897 43.5224 37.7783C43.5135 37.6668 43.482 37.5583 43.43 37.4592C43.3862 37.3566 43.3221 37.2638 43.2415 37.1866C43.1609 37.1093 43.0655 37.0492 42.9611 37.0097C42.8567 36.9703 42.7454 36.9524 42.6338 36.957C42.5223 36.9617 42.4128 36.9889 42.3121 37.0369Z" fill="#333333"/>
<path d="M37.7659 39.273C37.6647 39.3205 37.5742 39.3881 37.4998 39.4716C37.4254 39.5551 37.3687 39.6528 37.3331 39.7589C37.2975 39.8649 37.2838 39.977 37.2927 40.0885C37.3016 40.2 37.333 40.3085 37.385 40.4075C37.4604 40.5511 37.5764 40.6694 37.7185 40.7477C37.8605 40.826 38.0225 40.8609 38.1842 40.8479C38.3459 40.835 38.5003 40.7749 38.6281 40.675C38.7559 40.5751 38.8516 40.4398 38.9032 40.2861C38.9549 40.1323 38.9602 39.9667 38.9185 39.8099C38.8769 39.6531 38.7901 39.512 38.669 39.4041C38.5479 39.2962 38.3977 39.2262 38.2372 39.2029C38.0766 39.1796 37.9128 39.204 37.7659 39.273Z" fill="#333333"/>
<path d="M41.5335 42.0304C41.9955 42.0304 42.37 41.6523 42.37 41.1858C42.37 40.7192 41.9955 40.3411 41.5335 40.3411C41.0716 40.3411 40.6971 40.7192 40.6971 41.1858C40.6971 41.6523 41.0716 42.0304 41.5335 42.0304Z" fill="#333333"/>
</svg>
