<svg width="44" height="44" viewBox="0 0 44 44" fill="none" xmlns="http://www.w3.org/2000/svg">
<path d="M40.4026 4.19377L39.4015 3.1694C39.0841 2.84529 38.654 2.66327 38.2056 2.66327C37.7571 2.66327 37.327 2.84529 37.0096 3.1694L22.4299 18.095C22.0862 17.9551 21.7105 17.919 21.3473 17.9909C20.9841 18.0628 20.6487 18.2397 20.3807 18.5006L18.8018 20.1231C18.5038 19.8632 18.1406 19.6939 17.7534 19.6344C17.3661 19.5749 16.9704 19.6276 16.6109 19.7865C16.2514 19.9453 15.9426 20.2041 15.7195 20.5333C15.4963 20.8626 15.3678 21.2492 15.3484 21.6494C14.6689 21.4777 13.9596 21.4709 13.2772 21.6297C12.5947 21.7885 11.958 22.1083 11.4179 22.5638L4.12806 28.6756C3.82584 28.9285 3.57875 29.2434 3.40271 29.6C3.22666 29.9565 3.12557 30.3469 3.10595 30.7459C3.08633 31.1449 3.14861 31.5436 3.28878 31.9165C3.42895 32.2893 3.6439 32.628 3.91978 32.9106L11.3104 40.4731C11.8377 41.0075 12.5503 41.3066 13.2924 41.305H13.4268C13.8155 41.2848 14.1958 41.1814 14.543 41.0014C14.8902 40.8214 15.1966 40.5688 15.4424 40.26L21.4154 32.8006C21.8608 32.2469 22.1731 31.5939 22.3271 30.8942C22.4812 30.1945 22.4727 29.4676 22.3023 28.7719C22.8447 28.7523 23.3584 28.5174 23.7346 28.1171C24.1108 27.7167 24.32 27.1823 24.3179 26.6269C24.315 26.1218 24.1364 25.6344 23.814 25.2519L25.3996 23.6363C25.6544 23.3691 25.828 23.0321 25.8996 22.6661C25.9711 22.3001 25.9375 21.9207 25.8028 21.5738L40.3824 6.65502C40.5426 6.49531 40.6703 6.30471 40.7581 6.09422C40.8459 5.88374 40.892 5.65754 40.8939 5.42869C40.8958 5.19985 40.8533 4.97289 40.769 4.76093C40.6847 4.54897 40.5601 4.35621 40.4026 4.19377ZM15.167 23.0175L15.906 23.2306L15.9598 23.2994L20.7301 28.1806L20.7973 28.2356L21.0056 28.9919C21.1221 29.421 21.1512 29.8701 21.0911 30.3112C21.031 30.7523 20.8829 31.1761 20.6562 31.5563L12.6609 23.375C13.0316 23.1411 13.4458 22.9885 13.8772 22.9269C14.3086 22.8654 14.7478 22.8962 15.167 23.0175ZM19.8701 32.6425L18.6943 34.1138L10.1548 25.3963L11.5926 24.1931L19.8701 32.6425ZM14.4548 39.4144C14.3254 39.5743 14.1646 39.7046 13.9829 39.7969C13.8012 39.8893 13.6026 39.9417 13.3999 39.9506C13.1977 39.9636 12.995 39.9316 12.806 39.8568C12.617 39.7821 12.446 39.6663 12.3048 39.5175L11.7874 38.995L13.9374 36.3069C13.994 36.2374 14.0366 36.1572 14.0629 36.0709C14.0891 35.9845 14.0984 35.8937 14.0903 35.8037C14.0822 35.7136 14.0568 35.6261 14.0156 35.5461C13.9744 35.4661 13.9181 35.3952 13.8501 35.3375C13.7822 35.2796 13.7038 35.236 13.6194 35.2092C13.535 35.1823 13.4463 35.1728 13.3583 35.1811C13.2703 35.1894 13.1848 35.2154 13.1066 35.2576C13.0284 35.2997 12.9592 35.3573 12.9028 35.4269L10.7998 38.0256L9.03275 36.2175L11.3978 33.7975C11.5078 33.666 11.5653 33.4968 11.5588 33.3238C11.5523 33.1508 11.4822 32.9866 11.3625 32.8642C11.2429 32.7418 11.0825 32.67 10.9134 32.6633C10.7443 32.6567 10.5789 32.7155 10.4504 32.8281L8.08541 35.2481L6.33853 33.44L8.87822 31.2881C8.94625 31.2304 9.00249 31.1595 9.04371 31.0796C9.08493 30.9996 9.11033 30.912 9.11844 30.822C9.12655 30.732 9.11723 30.6412 9.091 30.5548C9.06476 30.4684 9.02214 30.3882 8.96557 30.3188C8.8488 30.1812 8.68343 30.0967 8.5058 30.0838C8.32816 30.0709 8.15279 30.1307 8.01822 30.25L5.38447 32.4638L4.87385 31.9344C4.7288 31.7897 4.61592 31.6146 4.54288 31.4213C4.46984 31.2279 4.43835 31.0207 4.45056 30.8138C4.45933 30.6064 4.5105 30.4031 4.60077 30.2172C4.69104 30.0313 4.8184 29.8668 4.97463 29.7344L9.10666 26.2969L17.841 35.2344L14.4548 39.4144ZM22.7659 27.2113C22.6203 27.3566 22.425 27.4379 22.2217 27.4379C22.0183 27.4379 21.823 27.3566 21.6774 27.2113L16.9071 22.33C16.7662 22.1803 16.6869 21.981 16.6854 21.7731C16.6845 21.6696 16.7037 21.567 16.7418 21.4711C16.7799 21.3752 16.8361 21.288 16.9074 21.2145C16.9786 21.141 17.0633 21.0826 17.1567 21.0428C17.25 21.003 17.3502 20.9825 17.4513 20.9825C17.5528 20.9819 17.6533 21.0023 17.7468 21.0425C17.8403 21.0827 17.9249 21.1418 17.9956 21.2163L22.7659 26.0975C22.8384 26.17 22.8959 26.2567 22.9351 26.3523C22.9744 26.448 22.9945 26.5507 22.9943 26.6544C22.9941 26.7581 22.9738 26.8607 22.9346 26.9563C22.8954 27.0518 22.8381 27.1385 22.7659 27.2113ZM24.4657 22.6875L22.9003 24.2963L19.7626 21.0856L21.3281 19.4769C21.4294 19.3777 21.5641 19.3224 21.7043 19.3224C21.8445 19.3224 21.9793 19.3777 22.0806 19.4769L24.459 21.9106C24.51 21.9608 24.5507 22.0208 24.5788 22.0873C24.6068 22.1537 24.6215 22.2253 24.6222 22.2976C24.6228 22.37 24.6093 22.4418 24.5824 22.5087C24.5555 22.5757 24.5159 22.6365 24.4657 22.6875ZM39.4687 5.66502L24.9696 20.4806L23.4848 18.9613L37.9637 4.12502C38.0279 4.05953 38.1149 4.02275 38.2056 4.02275C38.2962 4.02275 38.3832 4.05953 38.4474 4.12502L39.4687 5.17002C39.5327 5.23574 39.5686 5.32474 39.5686 5.41752C39.5686 5.5103 39.5327 5.5993 39.4687 5.66502Z" fill="#333333"/>
</svg>
