<svg width="25" height="24" viewBox="0 0 25 24" fill="none" xmlns="http://www.w3.org/2000/svg">
<g clip-path="url(#clip0_1_517)">
<path d="M5.11091 22.5C5.11091 22.697 5.14923 22.892 5.22367 23.074C5.29812 23.256 5.40724 23.4214 5.5448 23.5607C5.68236 23.6999 5.84566 23.8104 6.0254 23.8858C6.20513 23.9612 6.39776 24 6.5923 24C6.98519 24 7.36198 23.842 7.6398 23.5607C7.77736 23.4214 7.88648 23.256 7.96092 23.074C8.03537 22.892 8.07369 22.697 8.07369 22.5C8.07369 22.1022 7.91761 21.7206 7.6398 21.4393C7.36198 21.158 6.98519 21 6.5923 21C6.19941 21 5.82261 21.158 5.5448 21.4393C5.26698 21.7206 5.11091 22.1022 5.11091 22.5ZM18.4434 22.5C18.4434 22.697 18.4817 22.892 18.5562 23.074C18.6306 23.256 18.7397 23.4214 18.8773 23.5607C19.0149 23.6999 19.1782 23.8104 19.3579 23.8858C19.5376 23.9612 19.7303 24 19.9248 24C20.3177 24 20.6945 23.842 20.9723 23.5607C21.1099 23.4214 21.219 23.256 21.2934 23.074C21.3679 22.892 21.4062 22.697 21.4062 22.5C21.4062 22.1022 21.2501 21.7206 20.9723 21.4393C20.6945 21.158 20.3177 21 19.9248 21C19.5319 21 19.1551 21.158 18.8773 21.4393C18.5995 21.7206 18.4434 22.1022 18.4434 22.5ZM0.623779 3.75C0.623779 3.94891 0.701817 4.13968 0.840724 4.28033C0.979631 4.42098 1.16803 4.5 1.36447 4.5H2.90364L3.82358 8.484L5.11091 15C5.11091 15.054 5.13609 15.1005 5.14202 15.153L4.38799 18.588C4.36362 18.6976 4.36395 18.8114 4.38897 18.9209C4.41399 19.0303 4.46306 19.1327 4.53252 19.2203C4.60198 19.3079 4.69005 19.3786 4.79018 19.427C4.89032 19.4754 4.99994 19.5004 5.11091 19.5H21.9158C22.1122 19.5 22.3006 19.421 22.4395 19.2803C22.5785 19.1397 22.6565 18.9489 22.6565 18.75C22.6565 18.5511 22.5785 18.3603 22.4395 18.2197C22.3006 18.079 22.1122 18 21.9158 18H6.0353L6.37453 16.455C6.4486 16.467 6.51527 16.5 6.5923 16.5H20.0952C20.9129 16.5 21.4062 16.3365 21.8002 15.375L24.206 7.902C24.6238 6.5625 23.7068 6 22.8876 6H5.11091C4.99536 6 4.89463 6.0405 4.78648 6.066L4.21171 3.579C4.1736 3.41423 4.08158 3.26735 3.95061 3.16224C3.81963 3.05712 3.6574 2.99994 3.49027 3H1.36447C1.16803 3 0.979631 3.07902 0.840724 3.21967C0.701817 3.36032 0.623779 3.55109 0.623779 3.75ZM5.14054 7.5H22.7765L20.4122 14.8485C20.384 14.913 20.3603 14.9595 20.3426 14.991C20.2937 14.9955 20.2166 15 20.0952 15H6.5923V14.8515L6.56415 14.706L5.14054 7.5Z" fill="#333333"/>
</g>
<defs>
<clipPath id="clip0_1_517">
<rect width="24" height="24" fill="white" transform="translate(0.666748)"/>
</clipPath>
</defs>
</svg>
