<svg width="32" height="32" viewBox="0 0 32 32" fill="none" xmlns="http://www.w3.org/2000/svg">
<g clip-path="url(#clip0_1_492)">
<path d="M7.76226 23.2145C8.43282 24.5847 9.79631 25.5254 11.3669 25.5254H14.9027C17.1776 25.5254 19.0996 23.5878 19.0996 21.2943V16.0563C19.0996 15.745 18.8472 15.4927 18.5359 15.4927H7.88322C7.57198 15.4927 7.31958 15.745 7.31958 16.0563V16.6763H6.92633C5.47959 16.6763 4.38867 17.7543 4.38867 19.1837V20.5817C4.38867 22.0334 5.52705 23.2145 6.92633 23.2145H7.76226ZM8.44685 16.6199H17.9723V21.2943C17.9723 22.0873 17.6384 22.8804 17.0562 23.4701C16.4654 24.0685 15.7005 24.3981 14.9027 24.3981H11.3669C9.75675 24.3981 8.44685 23.0058 8.44685 21.2943V16.6199ZM5.51594 20.5817V19.1837C5.51594 18.384 6.10906 17.8036 6.92633 17.8036H7.31958V21.2943C7.31958 21.5654 7.34506 21.8302 7.3919 22.0872H6.92633C6.14868 22.0872 5.51594 21.4119 5.51594 20.5817Z" fill="#333333"/>
<path d="M29.3202 2.18912C28.5294 1.39068 27.4669 0.950928 26.3285 0.950928H5.77063C3.39276 0.950928 1.45825 2.85241 1.45825 5.18964V6.24691C1.45825 7.38534 1.91102 8.46071 2.73325 9.27494C3.55233 10.086 4.63107 10.5327 5.77063 10.5327H9.54136L9.80029 11.7751C9.82673 11.9018 9.89602 12.0157 9.99652 12.0974C10.097 12.1791 10.2226 12.2237 10.3521 12.2237H11.6037V13.1818C11.6037 13.4931 11.8561 13.7455 12.1673 13.7455H14.2528C14.564 13.7455 14.8164 13.4931 14.8164 13.1818V12.2237H16.1083C16.3752 12.2237 16.6056 12.0364 16.6601 11.7751L16.919 10.5327H21.0728V26.2018H6.18181C3.79069 26.2018 1.91773 28.0834 1.91773 30.4855C1.91773 30.7967 2.17012 31.0491 2.48136 31.0491H29.9783C30.2895 31.0491 30.5419 30.7967 30.5419 30.4855V5.18964C30.5419 4.05014 30.1081 2.98453 29.3202 2.18912ZM13.6892 12.6182H12.731V12.2237H13.6892V12.6182ZM15.65 11.0964H10.8104L10.6929 10.5327H15.7675L15.65 11.0964ZM29.4146 29.9218H3.09133C3.20056 29.2691 3.50014 28.6794 3.96147 28.223C4.54439 27.6466 5.33286 27.3291 6.18181 27.3291H21.6364C21.9477 27.3291 22.2001 27.0767 22.2001 26.7655V9.96911C22.2001 9.65781 21.9477 9.40547 21.6364 9.40547H5.77063C4.93008 9.40547 4.1331 9.07462 3.52652 8.4739C2.9197 7.87306 2.58552 7.08216 2.58552 6.24691V5.18964C2.58552 3.47399 4.0144 2.0782 5.77063 2.0782H26.3285C28.059 2.0782 29.4146 3.44491 29.4146 5.18964V29.9218Z" fill="#333333"/>
</g>
<defs>
<clipPath id="clip0_1_492">
<rect width="31" height="31" fill="white" transform="translate(0.5 0.5)"/>
</clipPath>
</defs>
</svg>
