<svg width="29" height="40" viewBox="0 0 29 40" fill="none" xmlns="http://www.w3.org/2000/svg">
<path d="M1.91864 8.16217C1.87141 8.03339 1.7787 7.975 1.71168 7.89629C1.39232 7.52114 1.14498 7.1122 1.0641 6.61316C0.929285 5.78146 1.49405 5.07586 2.33234 5.03415C2.68722 5.01418 3.04256 5.06428 3.37831 5.18161C3.46093 5.21082 3.54498 5.23574 3.64411 5.2677C3.67832 5.13491 3.63782 5.01915 3.62475 4.90466C3.53523 4.12325 3.98767 3.20369 4.96214 3.06335C5.2591 3.02059 5.53843 3.08346 5.81274 3.1878C5.85786 3.20498 5.90047 3.22878 5.9453 3.24691C6.00296 3.27021 6.06219 3.33546 6.12219 3.29175C6.19061 3.24188 6.15746 3.15516 6.14396 3.0873C6.11883 2.94353 6.10835 2.79755 6.11268 2.65164C6.11844 1.14644 7.38494 0.289969 8.46548 0.263732C9.17493 0.2465 9.77183 0.493488 10.2801 0.980552C10.3251 1.02366 10.3575 1.08613 10.4308 1.09494C10.5001 1.0544 10.5078 0.975124 10.5415 0.913353C10.6746 0.669432 10.8325 0.448802 11.0586 0.280014C11.6802 -0.184026 12.4553 -0.0612131 12.906 0.573489C12.9756 0.671427 12.9982 0.823081 13.1117 0.862948C13.2278 0.903788 13.3267 0.777763 13.4423 0.744735C13.9402 0.60216 14.3634 0.735 14.7321 1.08207C14.7844 1.13261 14.8323 1.18765 14.8751 1.24655C14.9268 1.31591 14.9829 1.33358 15.0621 1.29306C15.485 1.07688 15.8913 1.13459 16.275 1.38798C16.701 1.66933 16.9228 2.07983 16.9638 2.58522C17.0149 3.21515 16.7617 3.73887 16.3714 4.20734C16.2774 4.31858 16.1752 4.4225 16.0657 4.51822C15.9604 4.61134 15.9382 4.70716 15.9841 4.84146C16.3089 5.7919 16.616 6.74863 16.9516 7.69518C17.8097 10.1159 18.7603 12.5012 19.7143 14.8848C20.1898 16.0727 20.6923 17.25 21.1079 18.4615C21.2052 18.745 21.2993 19.0296 21.3901 19.3153C21.4266 19.4297 21.4881 19.4886 21.6155 19.4891C22.0004 19.4903 22.3098 19.6744 22.5893 19.9192C22.9377 20.2244 23.1657 20.6146 23.3464 21.0347C23.7111 21.8827 24.0587 22.7379 24.4477 23.5757C25.0651 24.9049 25.6729 26.2387 26.2075 27.6046C26.5263 28.4192 26.8369 29.2369 27.1944 30.0357C27.4329 30.5687 27.7121 31.0801 27.9913 31.5917C28.1222 31.8246 28.2392 32.0651 28.3417 32.3119C28.557 32.8493 28.5444 33.387 28.3541 33.9267C28.0064 34.9129 27.4091 35.727 26.6444 36.4238C25.832 37.164 24.9107 37.7425 23.9423 38.249C23.091 38.6942 22.2277 39.1131 21.3257 39.4471C20.3797 39.7974 19.4063 39.9981 18.3953 39.9994C17.9038 40.0001 17.4126 40.0087 16.9245 39.9271C15.7355 39.7282 14.8057 39.1312 14.1725 38.0961C12.9396 36.0806 11.5761 34.1468 10.4486 32.065C10.1944 31.5955 9.91395 31.14 9.63571 30.684C9.17924 29.9353 8.78214 29.1578 8.48844 28.3299C8.34267 27.9072 8.10693 27.5216 7.79767 27.2C7.70647 27.1077 7.62959 27.0021 7.56959 26.8868C7.41675 26.586 7.41499 26.291 7.63801 26.0239C7.71969 25.9262 7.74601 25.8381 7.70972 25.7156C7.6279 25.4491 7.64518 25.1618 7.75835 24.9072C7.78067 24.8595 7.79138 24.8072 7.78958 24.7545C7.78779 24.7019 7.77354 24.6504 7.74802 24.6044C7.70557 24.5171 7.65731 24.4329 7.60358 24.3523C7.20936 23.7866 6.86885 23.1886 6.56081 22.5729C5.74204 20.9363 4.92839 19.2972 4.11986 17.6554C3.48019 16.3534 2.90437 15.0234 2.46255 13.6385C2.20164 12.8206 1.93429 12.004 1.75037 11.1637C1.71669 11.0099 1.6437 10.9344 1.48788 10.894C1.14984 10.8064 0.868146 10.6199 0.680591 10.3157C0.35871 9.79385 0.474746 9.15937 0.967754 8.71322C1.18419 8.51783 1.43257 8.36155 1.70193 8.2513C1.76813 8.22401 1.83439 8.19683 1.91864 8.16217ZM15.6194 7.08713L15.5724 7.08107C15.5568 7.15009 15.5382 7.21861 15.526 7.28822C15.3228 8.4433 14.9047 9.51736 14.3163 10.5265C13.7669 11.4688 13.0696 12.298 12.3538 13.1129C11.831 13.7082 11.3043 14.3004 10.8552 14.9567C10.3887 15.6382 10.0352 16.3702 9.8682 17.1852C9.68817 18.0636 9.7208 18.9419 9.88172 19.8187C10.0447 20.7067 10.3248 21.5611 10.6222 22.4103C10.7856 22.8768 10.9461 23.3441 11.0777 23.821C11.2755 24.5373 11.3584 25.2518 11.0735 25.9686C11.0111 26.1258 11.0338 26.1526 11.2069 26.1585C11.8439 26.1802 12.4808 26.1731 13.1134 26.0877C14.662 25.8786 16.0931 25.336 17.4277 24.5273C18.5043 23.8749 19.4888 23.1094 20.3031 22.1365C20.5886 21.7956 20.8565 21.4394 21.1659 21.1192C21.2458 21.0367 21.2566 20.9543 21.2008 20.8565C21.1687 20.8003 21.1427 20.7407 21.1137 20.6827C20.5082 19.4644 19.9093 18.243 19.3944 16.982C18.6075 15.0546 17.8492 13.1157 17.0839 11.1796C16.6311 10.0345 16.1843 8.88719 15.8116 7.71236C15.7456 7.50473 15.6833 7.29566 15.6194 7.08713ZM8.93226 26.8106C8.95198 26.8593 8.95605 26.8843 8.96988 26.9012C9.20808 27.1923 9.37802 27.5218 9.51757 27.8695C9.71655 28.3654 9.89556 28.8716 10.1627 29.3357C10.946 30.6964 11.7247 32.06 12.5293 33.4079C13.139 34.4291 13.7864 35.4276 14.4154 36.4371C14.6935 36.8834 14.9425 37.3482 15.2544 37.7728C15.555 38.1892 15.9758 38.5022 16.4596 38.6694C16.8679 38.8135 17.291 38.8711 17.7169 38.8903C18.7234 38.9355 19.7108 38.8198 20.6677 38.4834C21.7894 38.0891 22.8549 37.5705 23.8988 37.0054C24.6388 36.6048 25.3436 36.1493 25.9682 35.5797C26.5988 35.0047 27.0915 34.3338 27.3605 33.5092C27.467 33.1828 27.4514 32.8706 27.3069 32.5644C27.2137 32.3668 27.1162 32.1707 27.0098 31.9802C26.567 31.1879 26.1645 30.3763 25.8259 29.5332C25.4426 28.5787 25.071 27.6191 24.6691 26.6727C23.9347 24.9438 23.0904 23.2634 22.4101 21.5103C22.3879 21.4531 22.3787 21.3818 22.3057 21.3606C22.26 21.3769 22.2459 21.4166 22.2295 21.4529C21.8 22.4046 21.1235 23.1664 20.3462 23.8316C18.812 25.1446 17.0809 26.1149 15.1487 26.7016C13.2755 27.2704 11.3778 27.34 9.46364 26.9284C9.29312 26.8917 9.12303 26.853 8.93226 26.8106ZM2.78252 11.1493C2.7397 11.2786 2.78881 11.3512 2.8162 11.4233C3.42215 13.0214 4.04208 14.6138 4.76099 16.165C5.32961 17.3918 5.88285 18.6255 6.42072 19.8663C6.8763 20.9135 7.35486 21.9502 7.90976 22.9488C8.44859 23.9184 9.05367 24.848 9.62405 25.7985C9.76278 26.0297 9.94671 26.0921 10.1805 26.0992C10.3419 26.104 10.3695 26.0735 10.3464 25.9177C10.3287 25.7976 10.3046 25.6784 10.2804 25.5594C10.0568 24.461 9.71911 23.3963 9.34838 22.3406C9.08265 21.5837 8.84671 20.8169 8.69404 20.0273C8.48268 18.9341 8.43892 17.8393 8.68984 16.7457C8.90287 15.8172 9.30418 14.9736 9.84134 14.1922C9.89394 14.1157 9.96439 14.0454 9.97869 13.9326C7.25407 13.8568 4.8937 12.8537 2.78252 11.1493ZM12.6259 2.45107C12.5731 2.22282 12.6046 2.00324 12.6477 1.79149C12.7126 1.47312 12.5966 1.21605 12.4223 0.976901C12.1148 0.554992 11.6406 0.538514 11.2874 0.926593C11.1301 1.10237 11.0222 1.3171 10.9747 1.54871C10.9355 1.7227 10.9232 1.90174 10.9384 2.07949C10.9477 2.15315 10.9285 2.2276 10.8848 2.28741C10.841 2.34722 10.7761 2.38781 10.7034 2.40076C10.568 2.42838 10.4504 2.36133 10.3749 2.21136C10.3568 2.17533 10.3438 2.13664 10.3291 2.09891C10.2499 1.89436 10.1347 1.70582 9.98902 1.54231C9.4957 0.988949 8.8877 0.755517 8.16235 0.945334C7.46889 1.12678 7.00168 1.56149 6.83957 2.28347C6.77893 2.54557 6.77871 2.81814 6.83892 3.08034C6.99161 3.7269 7.14788 4.37416 7.54031 4.93032C7.60733 5.02202 7.66003 5.12348 7.69661 5.23119C7.76518 5.44418 7.71202 5.62134 7.54789 5.72186C7.37582 5.82722 7.18151 5.78884 7.03255 5.60912C6.97346 5.53225 6.92132 5.45022 6.87676 5.36401C6.70573 5.06012 6.52466 4.76323 6.29503 4.49943C6.06927 4.2401 5.8131 4.01872 5.48776 3.89724C4.98801 3.71061 4.5294 3.94465 4.39921 4.46433C4.24742 5.07036 4.46742 5.58111 4.85762 6.0267C5.0272 6.22036 5.24098 6.37523 5.39031 6.5888C5.46069 6.68944 5.52551 6.67281 5.6135 6.61995C6.39498 6.1507 7.2676 6.06084 8.14866 6.01183C8.3141 6.0026 8.31981 6.01404 8.35453 5.83374C8.41571 5.51598 8.58113 5.26495 8.82697 5.06401C9.13182 4.81483 9.48871 4.70494 9.87427 4.66775C10.1154 4.64451 10.117 4.64006 10.1797 4.40886C10.3132 3.91376 10.5551 3.45495 10.8877 3.06603C11.1416 2.76691 11.4395 2.52084 11.8081 2.37379C12.0385 2.28184 12.2643 2.28724 12.4826 2.41393C12.5165 2.43361 12.5459 2.46601 12.6259 2.45107ZM7.33524 7.86867C7.30679 7.75829 7.22992 7.69343 7.17091 7.6191C7.08125 7.50622 7.02935 7.32166 6.89931 7.29325C6.75262 7.26122 6.63518 7.4231 6.50806 7.5042C5.75342 7.98569 5.3253 8.67688 5.21093 9.56721C5.19889 9.67185 5.18112 9.77575 5.1577 9.87843C5.10082 10.1131 4.91702 10.1877 4.71737 10.0611C4.61836 9.99837 4.55718 9.90372 4.50615 9.80098C4.31891 9.4242 4.2915 9.02402 4.34311 8.61518C4.40296 8.12986 4.58978 7.66922 4.88448 7.28028C5.01271 7.10891 5.0106 7.10587 4.85694 6.96911C4.65176 6.78648 4.45955 6.58959 4.28175 6.3799C4.22134 6.30401 4.15046 6.2372 4.07126 6.18149C3.79005 5.99159 3.48528 5.83963 3.16477 5.7295C2.88841 5.63723 2.59493 5.60875 2.30614 5.64619C1.91835 5.69421 1.68785 5.96074 1.67931 6.3513C1.67243 6.52199 1.70446 6.69199 1.77297 6.8483C2.02067 7.3948 2.3875 7.83102 2.92735 8.10702C2.97805 8.13166 3.02563 8.16231 3.06908 8.19833C3.23065 8.33867 3.27546 8.54562 3.18207 8.69893C3.08759 8.85402 2.93081 8.8952 2.71415 8.80845C2.62136 8.77129 2.53005 8.74289 2.43294 8.76464C2.03978 8.85268 1.68122 9.00864 1.41339 9.32577C1.16605 9.61864 1.2133 9.94346 1.52514 10.1636C1.61302 10.2256 1.65802 10.2093 1.71362 10.1166C1.92653 9.76185 2.18526 9.67647 2.57104 9.82681C2.75927 9.90016 2.93417 10.0016 3.10586 10.1077C3.7028 10.4768 4.29474 10.8545 4.91939 11.1757C4.9956 11.2149 5.06519 11.2804 5.17329 11.2629C5.20474 11.1336 5.14406 11.0101 5.14401 10.8827C5.1437 10.1827 5.33457 9.53907 5.70164 8.94855C6.0423 8.40056 6.51506 8.03658 7.16056 7.92375C7.21468 7.91425 7.27403 7.91932 7.33524 7.86867ZM6.41037 9.6101C6.34424 9.70925 6.30149 9.82089 6.25968 9.93278C6.13132 10.2827 6.02545 10.6405 5.94274 11.0041C5.90754 11.1539 5.86931 11.3026 5.79477 11.4398C5.72095 11.5756 5.72286 11.5791 5.86909 11.6464C7.12246 12.2276 8.44996 12.6309 9.81359 12.8449C10.0189 12.8768 10.0446 12.8499 9.99601 12.6446C9.92885 12.3607 9.85731 12.0783 9.83036 11.7863C9.78574 11.3025 9.74246 10.8185 9.68744 10.3357C9.64389 9.95361 9.55236 9.58476 9.30072 9.27809C9.26769 9.23784 9.24185 9.17606 9.17554 9.19578C9.13879 9.22126 9.13968 9.25509 9.13866 9.28668C9.11667 9.98359 9.02048 10.6749 8.98401 11.3708C8.97216 11.5973 8.89154 11.7215 8.76568 11.7319C8.64585 11.7418 8.54849 11.6512 8.48348 11.4443C8.34104 11.0045 8.25865 10.5473 8.23856 10.0852C8.22388 9.67576 8.27294 9.27614 8.41586 8.89067C8.44489 8.81245 8.44997 8.73821 8.34974 8.72188C8.23714 8.70355 8.12316 8.60837 8.0091 8.70944C7.99217 8.72441 7.99984 8.77087 8.00124 8.80254C8.00521 8.89155 8.01356 8.98038 8.01714 9.06939C8.04617 9.79137 7.95972 10.5108 7.96984 11.2324C7.97188 11.2975 7.95941 11.3623 7.93333 11.422C7.85457 11.596 7.69821 11.6234 7.56799 11.4828C7.53479 11.4474 7.50807 11.4064 7.48907 11.3616C7.18236 10.6111 7.03468 9.84311 7.23409 9.03541C7.25756 8.94049 7.36815 8.81393 7.26864 8.7523C7.17646 8.69513 7.0692 8.81965 6.97419 8.87643C6.95353 8.8888 6.93531 8.90527 6.91586 8.91973C6.83931 8.97659 6.81635 9.03673 6.88162 9.12357C6.9663 9.23637 6.99372 9.37262 7.01177 9.5107C7.09161 10.1211 6.98638 10.7221 6.92062 11.325C6.9165 11.3573 6.90795 11.3888 6.89522 11.4186C6.86377 11.4954 6.82573 11.5742 6.72884 11.5705C6.63525 11.5669 6.59163 11.491 6.56431 11.4129C6.53928 11.3444 6.52223 11.2732 6.51351 11.2007C6.46011 10.6941 6.36848 10.189 6.44262 9.67632C6.44671 9.66322 6.44564 9.64905 6.43964 9.63672C6.43364 9.62439 6.42316 9.61487 6.41037 9.6101ZM15.7368 4.11493C16.0563 3.63324 16.3113 3.14019 16.213 2.53662C16.1788 2.33491 16.0779 2.15074 15.9265 2.01402C15.8571 1.94558 15.7726 1.89459 15.6799 1.86519C15.5872 1.8358 15.4889 1.82884 15.393 1.84486C15.2375 1.86813 15.1878 1.92579 15.1829 2.08701C15.1788 2.22452 15.1845 2.36235 15.1789 2.49974C15.1722 2.67879 15.1193 2.853 15.0253 3.00521C14.9679 3.09864 14.8922 3.17453 14.7716 3.15584C14.6467 3.13651 14.611 3.03334 14.5874 2.92754C14.5768 2.8805 14.5771 2.83111 14.5704 2.78304C14.5462 2.60674 14.5272 2.42938 14.4758 2.25821C14.4193 2.06973 14.3367 1.89505 14.1867 1.76211C13.9026 1.51021 13.5205 1.5601 13.3085 1.875C13.2311 1.99 13.182 2.11865 13.1316 2.2466C13.0608 2.42646 13.0058 2.6172 12.7995 2.68766C13.1063 3.29423 14.4644 4.9106 14.8203 5.08642C14.8695 4.72843 14.9637 4.3853 14.977 4.02789C14.9809 3.93095 14.9902 3.83431 15.0047 3.73841C15.0189 3.6441 15.0705 3.57154 15.1641 3.54277C15.2695 3.5104 15.3571 3.55448 15.4205 3.63487C15.4852 3.71682 15.5372 3.80889 15.5946 3.89663C15.638 3.96317 15.6501 4.04933 15.7368 4.11493ZM12.3411 3.42407C12.2435 3.93762 12.213 4.40657 12.1953 4.87354C12.1743 5.42573 12.2407 5.97009 12.4683 6.4858C12.7079 7.02821 13.1185 7.42334 13.5538 7.79896C13.6695 7.89875 13.797 7.98503 13.9191 8.0774C13.9974 8.13661 14.0518 8.11617 14.0848 8.02641C14.1016 7.98087 14.1173 7.93499 14.1343 7.88953C14.3576 7.28934 14.5083 6.66899 14.6489 6.04517C14.6867 5.87743 14.643 5.77874 14.5017 5.68138C13.9339 5.29024 13.4519 4.80346 13.0014 4.28301C12.7751 4.02156 12.5797 3.73597 12.3411 3.42407ZM8.02202 6.67048C8.04152 6.69886 8.04748 6.71709 8.05969 6.7239C8.8006 7.13841 9.29873 7.74495 9.50935 8.57833C9.532 8.66465 9.57677 8.74347 9.6392 8.80692C9.83302 9.01357 9.99175 9.25087 10.109 9.50933C10.1813 9.66785 10.1913 9.66865 10.3265 9.54419C10.6079 9.28513 10.9386 9.15859 11.3181 9.17219C11.9511 9.19485 12.5127 9.40964 12.9952 9.82556C13.1435 9.95344 13.1438 9.95621 13.242 9.7994C13.2987 9.7109 13.3507 9.6194 13.3977 9.52527C13.4653 9.38596 13.4483 9.35086 13.2919 9.35159C12.8475 9.35369 12.4611 9.1838 12.0887 8.96381C11.9016 8.85196 11.7236 8.72544 11.5564 8.58541C10.9139 8.05337 10.4236 7.4159 10.1991 6.5941C10.1023 6.24051 10.0592 5.87994 10.0358 5.51569C10.0241 5.33336 10.006 5.31969 9.83193 5.37793C9.60123 5.45324 9.38859 5.57589 9.20745 5.73814C9.09093 5.83918 9.00105 5.96764 8.94581 6.11208C8.91341 6.20035 8.93674 6.25387 9.04184 6.24952C9.32121 6.23796 9.53298 6.38465 9.73046 6.55662C9.89668 6.69872 10.0376 6.86827 10.1472 7.058C10.251 7.24078 10.3524 7.42519 10.4481 7.61236C10.6264 7.96111 10.8361 8.28444 11.1414 8.53698C11.1916 8.5775 11.2338 8.62701 11.266 8.68301C11.3366 8.8115 11.275 8.92703 11.1286 8.94713C11.0807 8.95284 11.0321 8.95011 10.9851 8.93908C10.477 8.82525 10.0545 8.5813 9.78042 8.12023C9.69789 7.9815 9.62584 7.83613 9.55137 7.69255C9.45067 7.49836 9.34814 7.3052 9.20626 7.13744C9.06323 6.96836 8.89989 6.82615 8.6751 6.78151C8.58607 6.76382 8.5361 6.70779 8.49551 6.63429C8.46514 6.57933 8.45948 6.50885 8.38533 6.46523L8.02202 6.67048ZM11.4804 9.79468C11.1892 9.78144 10.8555 9.87765 10.5193 10.0697C10.3414 10.1714 10.3425 10.1741 10.3808 10.3752C10.4351 10.6609 10.488 10.9471 10.5365 11.2339C10.6243 11.753 10.6346 12.2794 10.6792 12.8026C10.6839 12.8567 10.6725 12.9245 10.7456 12.9415C10.8008 12.9543 10.8311 12.9063 10.8623 12.8703C11.0159 12.6938 11.169 12.517 11.3217 12.3398C11.8235 11.7603 12.321 11.1773 12.7637 10.5496C12.9158 10.334 12.9097 10.2989 12.692 10.1478C12.6524 10.1203 12.6102 10.0965 12.5686 10.0719C12.2329 9.87358 11.8612 9.81617 11.4804 9.79468ZM11.4171 4.06403C11.3284 4.15679 11.3014 4.24115 11.2658 4.31925C11.0953 4.69248 11.0142 5.08954 10.9881 5.49517C10.9421 6.207 11.0588 6.88563 11.4668 7.48774C11.9072 8.13744 12.5149 8.57646 13.2297 8.87439C13.3184 8.91136 13.4149 8.92898 13.5071 8.95763C13.6298 8.99572 13.7099 8.95334 13.7526 8.83277C13.7661 8.7947 13.7859 8.75888 13.7997 8.72081C13.8522 8.57573 13.8463 8.55718 13.7072 8.50393C13.5794 8.45496 13.4475 8.41672 13.3197 8.36763C12.3519 7.99525 11.7156 7.31365 11.4257 6.30966C11.2752 5.78823 11.2497 5.2575 11.3157 4.72137C11.3411 4.51481 11.3787 4.30993 11.4171 4.06403ZM8.78746 8.2089C8.78661 8.10558 8.72697 8.047 8.68497 7.98199C8.43594 7.59744 8.1 7.29564 7.75349 7.00511C7.56819 6.84976 7.56477 6.85394 7.34347 7.03539C7.68412 7.19846 7.86812 7.48105 7.96042 7.83245C7.97789 7.89899 8.00806 7.95329 8.07622 7.97581C8.3103 8.0532 8.54462 8.12938 8.78746 8.2089Z" fill="#333333"/>
</svg>
