<svg width="36" height="36" viewBox="0 0 36 36" fill="none" xmlns="http://www.w3.org/2000/svg">
<path d="M33.4843 23.2231L34.7992 21.9082C35.5114 21.1959 35.5114 20.0454 34.7992 19.3332L34.7627 19.2966C34.0504 18.5844 32.8999 18.5844 32.1877 19.2966L26.9646 24.5197L11.3137 8.86877L16.5367 3.64571C17.249 2.93347 17.249 1.78294 16.5367 1.0707L16.5002 1.03418C15.788 0.321941 14.6374 0.321941 13.9252 1.03418L12.6103 2.34907L11.2954 1.03418C10.5832 0.321941 9.41438 0.321941 8.70214 1.03418L6.09061 3.64571L4.77572 2.33081C4.06348 1.61858 2.87642 1.61858 2.16419 2.33081C1.45195 3.04305 1.45195 4.23011 2.16419 4.94234L3.47908 6.25724L0.867551 8.86877C0.155315 9.58101 0.155315 10.7315 0.867551 11.4438L2.18245 12.7587L0.867551 14.0918C0.155315 14.8041 0.155315 15.9546 0.867551 16.6668L0.904076 16.7034C1.61631 17.4156 2.76685 17.4156 3.47908 16.7034L8.70214 11.4803L24.3531 27.1312L19.13 32.3543C18.4178 33.0665 18.4178 34.2171 19.13 34.9293L19.1665 34.9658C19.8788 35.6781 21.0293 35.6781 21.7415 34.9658L23.0564 33.6509L24.3713 34.9658C25.0836 35.6781 26.2341 35.6781 26.9463 34.9658L29.5579 32.3543L30.8728 33.6692C31.585 34.3814 32.7721 34.3814 33.4843 33.6692C34.1965 32.957 34.1965 31.7699 33.4843 31.0577L32.1694 29.7428L34.7992 27.1312C35.5114 26.419 35.5114 25.2685 34.7992 24.5562L33.4843 23.2231Z" fill="#333333"/>
</svg>
