<svg width="39" height="38" viewBox="0 0 39 38" fill="none" xmlns="http://www.w3.org/2000/svg">
<path d="M22.079 3.72521C21.9425 3.58813 21.7803 3.47936 21.6017 3.40513C21.4231 3.3309 21.2316 3.29268 21.0381 3.29266H17.9619C17.5714 3.29345 17.1971 3.44893 16.9209 3.72508C16.6448 4.00122 16.4893 4.37553 16.4885 4.76605V5.85588C13.3179 6.55378 10.4796 8.31099 8.44135 10.8379C6.4031 13.3649 5.2865 16.5108 5.27556 19.7574V23.7465C4.83049 23.7786 4.41021 23.9636 4.08598 24.2701C3.70469 24.6352 3.44452 25.1084 3.34053 25.626C3.21933 26.2206 3.24337 26.8357 3.41059 27.4191C3.77842 28.7764 4.88428 30.3427 7.14825 31.6864C10.5415 33.7004 15.0258 34.7074 19.5 34.7074C23.9742 34.7074 28.4585 33.7004 31.8521 31.6864C34.1161 30.3427 35.2219 28.777 35.5895 27.4191C35.7569 26.8358 35.781 26.2206 35.6598 25.626C35.5558 25.1084 35.2955 24.6352 34.9141 24.2701C34.5898 23.9636 34.1696 23.7786 33.7245 23.7465V19.7574C33.7135 16.5108 32.5969 13.3649 30.5586 10.838C28.5204 8.31105 25.6821 6.55383 22.5115 5.85588V4.76605C22.5115 4.57263 22.4733 4.38111 22.3991 4.20249C22.3248 4.02388 22.2161 3.86168 22.079 3.72521ZM17.3702 4.76605C17.3708 4.6093 17.4333 4.45913 17.5442 4.34828C17.655 4.23744 17.8052 4.17493 17.9619 4.17438H21.0381C21.1949 4.17493 21.3451 4.23744 21.4559 4.34828C21.5668 4.45913 21.6293 4.6093 21.6298 4.76605V14.4789C21.6298 15.0438 21.4054 15.5855 21.006 15.9849C20.6066 16.3843 20.0649 16.6087 19.5 16.6087C18.9352 16.6087 18.3935 16.3843 17.994 15.9849C17.5946 15.5855 17.3702 15.0438 17.3702 14.4789V4.76605ZM32.572 28.1637L32.5892 28.1601L32.6065 28.1565L32.6406 28.1485L32.6575 28.1444L32.6745 28.1399L32.708 28.1304L32.7246 28.1254L32.7412 28.12L32.7579 28.1147L32.7742 28.109L32.7905 28.1031L32.8066 28.0972L32.8226 28.0909L32.8386 28.0844L32.8544 28.0779L32.8701 28.071L32.8858 28.0639L32.917 28.0494L32.9324 28.0419L32.9479 28.0342L32.963 28.0262L32.9782 28.0179L32.993 28.0096C33.0128 27.9983 33.0326 27.9866 33.0524 27.9746L33.0821 27.9561L33.0963 27.9466L33.1103 27.9368L33.1242 27.9271L33.1382 27.917L33.1518 27.9069L33.1655 27.8965L33.1788 27.8861L33.2056 27.8647L33.2314 27.8427L33.2442 27.8315L33.2694 27.8086L33.2819 27.797L33.294 27.7852L33.3062 27.7733L33.3181 27.7611L33.33 27.7489L33.3418 27.7365L33.3534 27.724L33.3647 27.7112L33.376 27.6985L33.387 27.6857L33.3979 27.6726L33.4089 27.6596L33.4196 27.6462L33.43 27.6329L33.4404 27.6192L33.4505 27.6055L33.4606 27.5919L33.4704 27.5779L33.4802 27.564L33.4897 27.5497L33.4992 27.5355L33.5084 27.5212L33.5173 27.5067L33.5262 27.4921L33.5348 27.4773L33.5431 27.4624L33.5514 27.4476L33.5594 27.4325L33.5675 27.4173L33.5752 27.4019L33.5826 27.3864L33.59 27.371L33.5971 27.3553L33.6043 27.3395L33.6111 27.3238L33.6176 27.3081L33.6242 27.292L33.6304 27.276L33.6363 27.2597L33.6423 27.2433L33.6479 27.227L33.6535 27.2107L33.6589 27.1941L33.6639 27.1774L33.669 27.1608L33.6737 27.1442L33.6782 27.1273L33.6823 27.1103L33.6865 27.0934L33.6904 27.0762L33.6939 27.059L33.6975 27.0418L33.7007 27.0246L33.7037 27.007L33.7067 26.9895L33.7094 26.972L33.7117 26.9545L33.7138 26.937L33.7159 26.9192L33.7177 26.9014V26.8835V26.8654V26.8476V26.8295V26.8114V26.7933V26.7752V24.9295C33.8659 24.959 34.0029 25.0297 34.1128 25.1335C34.3161 25.3363 34.4529 25.5962 34.505 25.8786C34.5858 26.2896 34.5664 26.714 34.4486 27.116C34.1517 28.2162 33.2091 29.5121 31.2483 30.6761C28.042 32.5797 23.7718 33.5318 19.492 33.5318C15.2123 33.5318 10.9447 32.5797 7.73576 30.6761C5.7749 29.5124 4.83351 28.2162 4.53545 27.116C4.41773 26.714 4.39838 26.2896 4.47904 25.8786C4.53109 25.5962 4.66776 25.3364 4.87092 25.1335C4.98084 25.0297 5.11779 24.959 5.26606 24.9295V26.7686V26.7868V26.8046V26.8224V26.8399V26.8571V26.8743L5.26754 26.8913L5.27111 26.9266L5.27318 26.9429C5.31352 27.2548 5.45592 27.5446 5.67818 27.7672C5.90044 27.9897 6.19008 28.1325 6.50195 28.1732C6.51917 28.1752 6.53668 28.1773 6.5542 28.1788L6.57142 28.1803H6.58864H6.60615H6.62367H6.64148H32.3212H32.3393H32.3574H32.3755H32.3936L32.4114 28.1788L32.4292 28.177L32.447 28.1749L32.4646 28.1729L32.4824 28.1705L32.4999 28.1678L32.5174 28.1651L32.5524 28.1589L32.572 28.1637ZM15.9007 27.0136V25.2774C15.9093 24.3286 16.2923 23.4214 16.9664 22.7535C17.6404 22.0856 18.5509 21.7108 19.4999 21.7108C20.4488 21.7108 21.3594 22.0856 22.0334 22.7535C22.7074 23.4214 23.0904 24.3286 23.099 25.2774V27.0136H15.9007ZM28.7153 10.5421C29.9295 11.7501 30.8932 13.186 31.5511 14.7674C32.2089 16.3488 32.548 18.0446 32.5489 19.7574V26.7716V26.7746V26.7776V26.7805V26.7835V26.7865V26.7894V26.7924V26.7954V26.7983V26.8013V26.8043V26.8072V26.8102V26.8132V26.8161V26.8191V26.8221V26.8248V26.8277V26.8304V26.8331V26.836V26.8387V26.8414V26.8441V26.8467V26.8494V26.8521V26.8547V26.8574V26.8601V26.8628V26.8654V26.8681V26.8708V26.8734V26.8761L32.5474 26.8788V26.8815V26.8841L32.5459 26.8865V26.8889L32.5444 26.8916L32.5429 26.8939L32.5412 26.8963L32.5394 26.8987L32.5376 26.9011L32.5358 26.9034L32.534 26.9058L32.5322 26.9082L32.5305 26.9106L32.5287 26.9129L32.5269 26.9153L32.5251 26.9177L32.5233 26.9198L32.5213 26.9218L32.5195 26.9239L32.5177 26.926L32.5156 26.9281L32.5135 26.9301L32.5115 26.9322L32.5094 26.9343L32.5073 26.9364L32.5052 26.9385L32.5032 26.9402L32.5011 26.9423L32.499 26.9441L32.4969 26.9459L32.4945 26.9477L32.4925 26.9494L32.4901 26.9512L32.4877 26.953L32.4856 26.9548L32.4833 26.9566L32.4785 26.9601L32.4761 26.9619L32.4738 26.9637L32.4714 26.9652L32.469 26.967L32.4643 26.9702L32.4592 26.9735L32.4568 26.975L32.4518 26.9779H32.4491H32.4465H32.4438L32.4384 26.9806H32.4358H32.4331H32.4304H32.4277L32.4221 26.983H32.4194H32.4168H32.4141H32.4111H32.4085H32.4058H32.4028H32.4001H32.3975H32.3945H32.3918H32.3889H32.3859H32.3829H32.38H32.377H23.9808V25.2774C23.9711 24.0954 23.4948 22.965 22.6555 22.1325C21.8162 21.3 20.682 20.8329 19.4999 20.8329C18.3178 20.8329 17.1835 21.3 16.3442 22.1325C15.505 22.965 15.0286 24.0954 15.019 25.2774V27.0136H6.68037H6.67147H6.6679C6.61324 27.0066 6.56243 26.9817 6.52347 26.9428C6.48451 26.9038 6.4596 26.853 6.45267 26.7983V26.7957V26.7868V26.7838V26.7781V26.7752V26.7722V19.7574C6.46329 16.8231 7.45815 13.9772 9.27799 11.6755C11.0978 9.37368 13.6374 7.74908 16.49 7.06179V14.4789C16.49 15.2776 16.8073 16.0436 17.3721 16.6084C17.9368 17.1731 18.7028 17.4904 19.5015 17.4904C20.3002 17.4904 21.0662 17.1731 21.631 16.6084C22.1957 16.0436 22.513 15.2776 22.513 14.4789V7.06179C24.8623 7.62644 27.0092 8.8311 28.7153 10.5421Z" fill="#333333"/>
</svg>
