<svg width="38" height="34" viewBox="0 0 38 34" fill="none" xmlns="http://www.w3.org/2000/svg">
<path d="M37.2572 23.969C37.2572 23.9654 37.2574 23.962 37.2572 23.9584C37.1038 19.8183 23.0565 15.8991 16.4876 15.8039C10.5352 15.7192 4.63101 17.3809 2.12684 19.8487C1.20992 20.7526 0.744246 21.745 0.742132 22.7979L0.741844 22.7998C0.671375 27.0509 0.670126 26.9289 0.67413 26.9702C1.12145 31.1897 4.64174 33.6749 10.3324 33.7887C10.4357 33.7908 10.5386 33.7917 10.642 33.7917C14.1509 33.7917 17.7854 32.6221 20.722 31.677C22.7162 31.0351 24.4386 30.4808 25.6996 30.4021C26.1682 30.3729 26.7519 30.3549 27.3697 30.336C30.5589 30.2381 34.9266 30.1039 36.5887 28.3251C36.8156 28.0895 36.9919 27.81 37.1069 27.5038C37.2219 27.1976 37.2732 26.8711 37.2575 26.5443V23.9703L37.2572 23.969ZM2.57675 20.3051C4.87291 18.0419 10.4934 16.4414 16.0605 16.4414C16.1999 16.4414 16.3392 16.4424 16.4783 16.4446C23.3847 16.5446 36.4865 20.5716 36.6168 23.9805V23.985C36.6305 24.2312 36.593 24.4776 36.5069 24.7087C36.4207 24.9398 36.2876 25.1505 36.116 25.3276C34.6291 26.9228 30.2473 27.0688 27.348 27.1652C26.7529 27.1851 26.1906 27.2038 25.729 27.2325C24.3735 27.3174 22.5972 27.9427 20.5404 28.6666C17.4228 29.7641 13.887 31.0081 10.4148 30.9385C5.43442 30.839 1.38247 27.1903 1.38247 22.8051C1.38247 21.9273 1.78427 21.086 2.57675 20.3051ZM36.1206 27.8875C34.3286 29.8054 28.2921 29.5984 25.6596 29.7626C24.3186 29.8465 22.561 30.4122 20.5257 31.0672C17.5479 32.0256 13.8393 33.2218 10.3453 33.1481C5.02212 33.0418 1.73155 30.7728 1.31335 26.9219L1.33256 25.7725C2.69149 29.0794 6.24408 31.496 10.402 31.5793C10.4963 31.5811 10.5901 31.5821 10.6844 31.5821C14.1881 31.5821 17.82 30.3035 20.753 29.2711C22.7648 28.5629 24.5023 27.9512 25.7691 27.872C26.2212 27.8437 26.7788 27.8253 27.3692 27.8056C30.5542 27.6997 34.9163 27.5545 36.5846 25.7645C36.5961 25.7522 36.6057 25.7389 36.6169 25.7265V26.5561C36.6309 26.8003 36.5941 27.0448 36.5086 27.274C36.4232 27.5032 36.291 27.7121 36.1206 27.8875Z" fill="#333333"/>
<path d="M8.9838 27.0056L10.3888 28.7618C10.4425 28.8259 10.5193 28.8665 10.6025 28.8748C10.6858 28.8831 10.769 28.8584 10.8344 28.8062C10.8997 28.7539 10.942 28.6781 10.9522 28.595C10.9624 28.512 10.9397 28.4282 10.8889 28.3617L9.4839 26.6055C9.43026 26.541 9.35345 26.5001 9.26999 26.4916C9.18653 26.4832 9.10307 26.5078 9.03756 26.5602C8.97206 26.6126 8.92972 26.6886 8.91965 26.7719C8.90959 26.8552 8.9326 26.9391 8.98374 27.0056H8.9838ZM8.2204 26.0512C8.24636 26.0849 8.27878 26.1132 8.31578 26.1343C8.35278 26.1553 8.39361 26.1688 8.43588 26.1739C8.47816 26.179 8.52102 26.1757 8.56198 26.164C8.60293 26.1524 8.64115 26.1327 8.6744 26.1061C8.70765 26.0795 8.73527 26.0465 8.75563 26.0091C8.77599 25.9717 8.78869 25.9306 8.79299 25.8883C8.79729 25.8459 8.7931 25.8031 8.78066 25.7624C8.76823 25.7217 8.7478 25.6838 8.72057 25.6511L5.75428 21.9432C5.72835 21.9094 5.69593 21.8811 5.65892 21.86C5.62191 21.8388 5.58106 21.8253 5.53875 21.8201C5.49644 21.815 5.45352 21.8183 5.41252 21.83C5.37152 21.8416 5.33326 21.8613 5.29997 21.888C5.26669 21.9146 5.23905 21.9476 5.21868 21.985C5.19832 22.0225 5.18562 22.0636 5.18135 22.106C5.17708 22.1484 5.18132 22.1912 5.19381 22.232C5.20631 22.2727 5.22681 22.3106 5.25411 22.3433L8.2204 26.0512ZM10.1227 23.337C10.069 23.2728 9.99227 23.2321 9.90897 23.2238C9.82566 23.2155 9.7424 23.2401 9.67702 23.2924C9.61164 23.3447 9.56933 23.4205 9.55915 23.5036C9.54897 23.5867 9.57174 23.6705 9.62257 23.737L13.6585 28.7819C13.7122 28.8464 13.789 28.8873 13.8724 28.8958C13.9559 28.9042 14.0393 28.8796 14.1048 28.8272C14.1704 28.7748 14.2127 28.6988 14.2228 28.6155C14.2328 28.5322 14.2098 28.4483 14.1587 28.3818L10.1227 23.337ZM8.58584 22.4412C8.61181 22.475 8.64423 22.5032 8.68123 22.5243C8.71822 22.5453 8.75904 22.5588 8.8013 22.5639C8.84357 22.569 8.88642 22.5656 8.92737 22.554C8.96831 22.5423 9.00652 22.5226 9.03976 22.496C9.07301 22.4694 9.10062 22.4365 9.12098 22.3991C9.14134 22.3617 9.15405 22.3207 9.15836 22.2783C9.16267 22.236 9.15849 22.1932 9.14608 22.1525C9.13366 22.1117 9.11325 22.0739 9.08604 22.0412L7.56924 20.1453C7.54331 20.1114 7.51089 20.0831 7.47388 20.062C7.43687 20.0408 7.39601 20.0273 7.3537 20.0222C7.31139 20.017 7.26848 20.0204 7.22748 20.032C7.18648 20.0437 7.14821 20.0634 7.11493 20.09C7.08164 20.1166 7.05401 20.1496 7.03364 20.187C7.01327 20.2245 7.00058 20.2656 6.99631 20.308C6.99204 20.3504 6.99627 20.3933 7.00877 20.434C7.02126 20.4748 7.04176 20.5126 7.06907 20.5453L8.58584 22.4412ZM16.526 28.2996C16.5797 28.364 16.6565 28.4047 16.7398 28.4131C16.8232 28.4215 16.9066 28.3969 16.972 28.3445C17.0375 28.2922 17.0798 28.2163 17.0899 28.1331C17.1 28.0499 17.0772 27.9661 17.0262 27.8996L9.91488 19.0104C9.86125 18.9459 9.78444 18.905 9.70096 18.8965C9.61748 18.888 9.53399 18.9126 9.46846 18.965C9.40293 19.0174 9.36059 19.0934 9.35053 19.1767C9.34047 19.26 9.36351 19.344 9.41468 19.4105L16.526 28.2996ZM18.0057 25.0571C17.9798 25.0233 17.9474 24.995 17.9104 24.9738C17.8734 24.9527 17.8325 24.9391 17.7902 24.934C17.7479 24.9288 17.705 24.9322 17.664 24.9438C17.623 24.9555 17.5847 24.9752 17.5514 25.0018C17.5181 25.0284 17.4905 25.0614 17.4701 25.0989C17.4498 25.1363 17.4371 25.1775 17.4328 25.2199C17.4285 25.2623 17.4328 25.3051 17.4453 25.3458C17.4577 25.3866 17.4782 25.4244 17.5056 25.4572L19.012 27.3405C19.0656 27.4052 19.1425 27.4463 19.226 27.4549C19.3096 27.4634 19.3932 27.4388 19.4588 27.3863C19.5244 27.3339 19.5668 27.2577 19.5768 27.1743C19.5867 27.0909 19.5636 27.0069 19.5122 26.9404L18.0057 25.0571ZM16.4508 24.1389C16.5043 24.2036 16.5812 24.2446 16.6648 24.2532C16.7483 24.2618 16.8319 24.2372 16.8975 24.1847C16.9632 24.1322 17.0055 24.0561 17.0155 23.9727C17.0255 23.8892 17.0023 23.8052 16.951 23.7388L12.9231 18.7039C12.8972 18.6701 12.8647 18.6419 12.8277 18.6208C12.7908 18.5998 12.7499 18.5863 12.7077 18.5812C12.6654 18.5761 12.6226 18.5795 12.5816 18.5911C12.5407 18.6028 12.5025 18.6225 12.4692 18.6491C12.436 18.6757 12.4084 18.7086 12.388 18.746C12.3676 18.7834 12.3549 18.8244 12.3506 18.8668C12.3463 18.9091 12.3505 18.9519 12.3629 18.9926C12.3753 19.0334 12.3957 19.0712 12.4229 19.1039L16.4508 24.1389ZM21.6892 26.6198C21.7424 26.6857 21.8195 26.7278 21.9037 26.737C21.9879 26.7462 22.0723 26.7217 22.1384 26.6688C22.2045 26.6159 22.2471 26.539 22.2566 26.4548C22.2662 26.3707 22.2421 26.2862 22.1895 26.2198L15.6 17.9832C15.574 17.9493 15.5416 17.921 15.5046 17.8999C15.4676 17.8787 15.4267 17.8652 15.3844 17.86C15.3421 17.8549 15.2992 17.8582 15.2582 17.8699C15.2172 17.8815 15.1789 17.9013 15.1456 17.9279C15.1124 17.9545 15.0847 17.9875 15.0644 18.0249C15.044 18.0624 15.0313 18.1035 15.027 18.1459C15.0228 18.1883 15.027 18.2312 15.0395 18.2719C15.052 18.3127 15.0725 18.3505 15.0998 18.3832L21.6892 26.6198ZM24.366 25.8991C24.392 25.9329 24.4244 25.9611 24.4614 25.9822C24.4984 26.0033 24.5392 26.0167 24.5815 26.0218C24.6238 26.027 24.6666 26.0236 24.7076 26.0119C24.7485 26.0003 24.7868 25.9806 24.82 25.954C24.8533 25.9274 24.8809 25.8944 24.9012 25.857C24.9216 25.8196 24.9343 25.7785 24.9386 25.7362C24.9429 25.6938 24.9387 25.651 24.9263 25.6103C24.9138 25.5696 24.8934 25.5317 24.8662 25.499L18.95 18.1038C18.8964 18.0393 18.8195 17.9985 18.7361 17.99C18.6526 17.9815 18.5692 18.0061 18.5037 18.0585C18.4382 18.1109 18.3958 18.187 18.3858 18.2702C18.3757 18.3535 18.3987 18.4374 18.4498 18.5039L24.366 25.8991ZM27.0425 25.178C27.0961 25.2425 27.173 25.2834 27.2564 25.2919C27.3399 25.3004 27.4234 25.2758 27.4889 25.2234C27.5545 25.171 27.5968 25.095 27.6069 25.0117C27.6169 24.9283 27.5939 24.8444 27.5427 24.7779L25.1959 21.8443C25.1699 21.8104 25.1375 21.7821 25.1005 21.761C25.0635 21.7398 25.0226 21.7263 24.9803 21.7212C24.938 21.716 24.8951 21.7194 24.8541 21.731C24.8131 21.7427 24.7748 21.7624 24.7416 21.789C24.7083 21.8156 24.6806 21.8486 24.6603 21.8861C24.6399 21.9235 24.6272 21.9646 24.6229 22.007C24.6187 22.0494 24.6229 22.0923 24.6354 22.133C24.6479 22.1738 24.6684 22.2116 24.6957 22.2443L27.0425 25.178ZM23.68 20.9748C23.706 21.0086 23.7384 21.037 23.7754 21.0581C23.8124 21.0792 23.8533 21.0928 23.8956 21.0979C23.9379 21.1031 23.9808 21.0997 24.0218 21.0881C24.0628 21.0764 24.101 21.0567 24.1343 21.0301C24.1676 21.0035 24.1953 20.9705 24.2156 20.933C24.236 20.8956 24.2487 20.8545 24.253 20.8121C24.2572 20.7697 24.253 20.7268 24.2405 20.6861C24.228 20.6453 24.2075 20.6075 24.1802 20.5747L22.7921 18.8396C22.7385 18.775 22.6616 18.7341 22.5781 18.7256C22.4946 18.7171 22.4111 18.7418 22.3456 18.7942C22.2801 18.8466 22.2377 18.9227 22.2277 19.0061C22.2177 19.0894 22.2408 19.1733 22.292 19.2398L23.68 20.9748ZM29.7198 24.4577C29.7734 24.5224 29.8502 24.5635 29.9338 24.572C30.0174 24.5806 30.101 24.556 30.1666 24.5035C30.2322 24.4511 30.2746 24.3749 30.2845 24.2915C30.2945 24.2081 30.2714 24.1241 30.22 24.0576L26.9454 19.9645C26.8917 19.9001 26.8149 19.8594 26.7315 19.851C26.6482 19.8426 26.5648 19.8672 26.4994 19.9195C26.4339 19.9719 26.3916 20.0478 26.3815 20.131C26.3714 20.2142 26.3942 20.298 26.4452 20.3645L29.7198 24.4577ZM32.3967 23.737C32.4503 23.8015 32.5271 23.8424 32.6106 23.8508C32.694 23.8593 32.7775 23.8347 32.843 23.7823C32.9085 23.7299 32.9508 23.6539 32.9609 23.5706C32.971 23.4873 32.948 23.4034 32.8968 23.3369L30.687 20.5747C30.6611 20.5409 30.6286 20.5127 30.5916 20.4917C30.5546 20.4706 30.5138 20.4571 30.4716 20.452C30.4293 20.4469 30.3864 20.4503 30.3455 20.462C30.3046 20.4736 30.2663 20.4933 30.2331 20.5199C30.1999 20.5465 30.1722 20.5794 30.1519 20.6168C30.1315 20.6542 30.1188 20.6953 30.1145 20.7376C30.1102 20.78 30.1144 20.8227 30.1268 20.8635C30.1392 20.9042 30.1596 20.942 30.1868 20.9748L32.3967 23.737ZM6.8231 28.2996C6.87679 28.364 6.95356 28.4047 7.03694 28.4131C7.12032 28.4215 7.20367 28.3969 7.26912 28.3445C7.33456 28.2922 7.37688 28.2163 7.38701 28.1331C7.39713 28.0499 7.37425 27.9661 7.32327 27.8996L4.46022 24.3211C4.40659 24.2565 4.32977 24.2156 4.24629 24.2071C4.16281 24.1986 4.07933 24.2232 4.0138 24.2756C3.94827 24.328 3.90592 24.4041 3.89586 24.4874C3.88581 24.5707 3.90884 24.6546 3.96002 24.7211L6.8231 28.2996ZM18.4912 7.6477C19.0336 8.34557 19.5458 9.0048 19.6323 9.66778C19.6885 10.2901 19.5704 10.9157 19.2912 11.4747C18.9545 12.2115 18.7887 13.0149 18.8062 13.8248C18.8092 13.9077 18.8442 13.9862 18.9039 14.0439C18.9635 14.1015 19.0433 14.1337 19.1262 14.1337L19.1378 14.1336C19.2227 14.1305 19.3029 14.0938 19.3607 14.0317C19.4186 13.9695 19.4495 13.8869 19.4465 13.802C19.4331 13.0802 19.5838 12.3648 19.8873 11.7098C20.2074 11.05 20.339 10.3146 20.2676 9.58479C20.1587 8.749 19.568 7.98935 18.997 7.25455C18.4058 6.49381 17.7944 5.70712 17.7297 4.86566C17.5595 2.65336 19.4504 1.03325 19.4695 1.01723C19.5334 0.962283 19.573 0.884377 19.5799 0.800396C19.5867 0.716414 19.5602 0.633122 19.506 0.568566C19.4519 0.50401 19.3745 0.46339 19.2906 0.455507C19.2067 0.447624 19.1231 0.473114 19.0579 0.526452C18.9695 0.600412 16.8951 2.36902 17.0909 4.91473C17.1704 5.94829 17.8418 6.8121 18.4912 7.6477ZM24.7611 9.4403C25.1428 9.93153 25.5035 10.3956 25.5624 10.8476C25.6015 11.2794 25.5185 11.7135 25.323 12.1004C25.0761 12.6411 24.9548 13.2306 24.9683 13.8248C24.9712 13.9077 25.0062 13.9862 25.0659 14.0438C25.1256 14.1014 25.2053 14.1336 25.2882 14.1336L25.2998 14.1335C25.3847 14.1304 25.4649 14.0938 25.5228 14.0316C25.5807 13.9694 25.6115 13.8868 25.6086 13.8019C25.6 13.296 25.706 12.7946 25.9188 12.3355C26.1553 11.8477 26.2518 11.304 26.1977 10.7647C26.1162 10.1401 25.6844 9.58438 25.2668 9.04712C24.8504 8.5113 24.4198 7.95716 24.3753 7.38002C24.2568 5.83915 25.5799 4.7032 25.5932 4.69192C25.6578 4.63717 25.6981 4.55908 25.7052 4.47473C25.7124 4.39037 25.6859 4.3066 25.6315 4.24174C25.577 4.17688 25.4992 4.1362 25.4149 4.1286C25.3305 4.12099 25.2466 4.14707 25.1815 4.20114C25.1166 4.25559 23.5927 5.55481 23.7366 7.42915C23.7959 8.19829 24.2865 8.82966 24.7611 9.4403ZM12.8133 9.4403C13.1951 9.93153 13.5558 10.3956 13.6147 10.8476C13.6539 11.2794 13.5709 11.7135 13.3753 12.1004C13.1285 12.6411 13.0073 13.2306 13.0207 13.8248C13.0237 13.9077 13.0587 13.9862 13.1184 14.0438C13.1781 14.1014 13.2578 14.1336 13.3408 14.1336L13.3523 14.1335C13.3944 14.132 13.4357 14.1222 13.474 14.1048C13.5122 14.0873 13.5467 14.0625 13.5754 14.0317C13.604 14.0009 13.6264 13.9647 13.6411 13.9253C13.6558 13.8859 13.6626 13.844 13.6611 13.8019C13.6523 13.2959 13.7584 12.7946 13.9714 12.3355C14.2076 11.8477 14.3041 11.304 14.25 10.7647C14.1685 10.1401 13.7367 9.58454 13.3191 9.04728C12.9027 8.5113 12.4722 7.95732 12.4278 7.38002C12.3093 5.83915 13.6322 4.7032 13.6455 4.69192C13.7106 4.63732 13.7513 4.55909 13.7587 4.47446C13.7662 4.38983 13.7396 4.30572 13.685 4.24064C13.6304 4.17555 13.5522 4.13483 13.4676 4.12742C13.3829 4.12002 13.2988 4.14653 13.2337 4.20114C13.1688 4.25559 11.6448 5.55481 11.7891 7.42915C11.8482 8.19829 12.3388 8.82966 12.8133 9.4403Z" fill="#333333"/>
</svg>
