<svg width="32" height="34" viewBox="0 0 32 34" fill="none" xmlns="http://www.w3.org/2000/svg">
<path d="M29.1204 23.9611C28.6826 23.5089 28.1197 23.2077 27.5091 23.0987C26.8985 22.9898 26.2702 23.0785 25.7104 23.3527L20.6604 18.1964C21.127 17.249 21.3431 16.1915 21.2869 15.1306C21.2307 14.0696 20.9042 13.0426 20.3404 12.1533L15.0904 4.62516C14.6635 4.02411 14.1132 3.52761 13.4789 3.1711C12.8445 2.81458 12.1416 2.60683 11.4204 2.56266C10.3851 2.51644 9.35226 2.69964 8.39143 3.09989C7.4306 3.50015 6.56413 4.10817 5.85043 4.88297L4.25043 6.53297C3.52163 7.24753 2.94517 8.11082 2.55778 9.06782C2.17039 10.0248 1.98058 11.0546 2.00043 12.0914C2.02129 12.815 2.18968 13.526 2.49464 14.1781C2.7996 14.8302 3.2343 15.4087 3.77043 15.8761L10.6204 21.7027C11.5581 22.4871 12.7332 22.9068 13.9404 22.8886C15.1041 22.8679 16.2433 22.5413 17.2504 21.9398L22.1704 27.0136C21.9526 27.4853 21.8541 28.0062 21.8842 28.5277C21.9143 29.0493 22.072 29.5545 22.3426 29.9962C22.6132 30.4379 22.9878 30.8017 23.4316 31.0538C23.8754 31.3059 24.3738 31.4379 24.8804 31.4377C25.5386 31.4332 26.1772 31.2057 26.6976 30.7901C27.218 30.3746 27.5915 29.794 27.7604 29.138C28.2749 29.0047 28.7449 28.7303 29.1204 28.3439C29.6822 27.7638 29.9978 26.9775 29.9978 26.1577C29.9978 25.3378 29.6822 24.5515 29.1204 23.9714V23.9611ZM11.9004 20.0939L5.00043 14.288C4.68784 13.9997 4.43733 13.6469 4.26509 13.2526C4.09284 12.8583 4.00269 12.4311 4.00043 11.9986C3.99912 11.2494 4.14662 10.5079 4.43384 9.81972C4.72105 9.13156 5.1419 8.51136 5.67043 7.99735L7.27043 6.34735C8.24443 5.28782 9.58535 4.66871 11.0004 4.62516H11.3104C11.7407 4.64646 12.1611 4.76569 12.5415 4.97429C12.9219 5.18289 13.2527 5.4757 13.5104 5.83172L18.7604 13.3083C19.1585 13.9961 19.3569 14.7873 19.3321 15.5879C19.3073 16.3885 19.0603 17.165 18.6204 17.8252C18.1784 18.5989 17.5819 19.2668 16.8704 19.7845C15.1404 21.022 13.1204 21.1252 11.9004 20.0939ZM27.7104 26.8589C27.6091 26.9604 27.4881 27.0386 27.3554 27.0883C27.2227 27.1381 27.0813 27.1583 26.9404 27.1477C26.8005 27.1398 26.6605 27.1624 26.5296 27.2139C26.3987 27.2654 26.2797 27.3447 26.1804 27.4467C26.0815 27.5491 26.0046 27.6718 25.9547 27.8068C25.9047 27.9418 25.8828 28.0862 25.8904 28.2305C25.9009 28.3782 25.8805 28.5264 25.8304 28.6652C25.7804 28.804 25.7019 28.9301 25.6004 29.0348C25.4158 29.2292 25.1642 29.3403 24.9004 29.3442C24.7018 29.3454 24.5073 29.2856 24.3418 29.1723C24.1763 29.0591 24.0472 28.8976 23.9711 28.7084C23.8949 28.5193 23.8751 28.311 23.9142 28.1101C23.9532 27.9093 24.0494 27.725 24.1904 27.5808C24.3767 27.3876 24.4812 27.1262 24.4812 26.8538C24.4812 26.5813 24.3767 26.3199 24.1904 26.1267L18.8904 20.7127L19.0504 20.5477C19.2404 20.3517 19.4104 20.1558 19.5804 19.9495L24.8904 25.4152C25.0778 25.6072 25.3312 25.715 25.5954 25.715C25.8596 25.715 26.1131 25.6072 26.3004 25.4152C26.4403 25.2697 26.619 25.1705 26.8138 25.1302C27.0085 25.09 27.2105 25.1104 27.3939 25.1889C27.5774 25.2675 27.734 25.4006 27.8438 25.5713C27.9536 25.742 28.0116 25.9425 28.0104 26.1473C28.0099 26.2838 27.9831 26.4188 27.9316 26.5444C27.8801 26.6701 27.8049 26.784 27.7104 26.8795V26.8589Z" fill="#333333"/>
</svg>
