<svg width="31" height="32" viewBox="0 0 31 32" fill="none" xmlns="http://www.w3.org/2000/svg">
<g clip-path="url(#clip0_1_538)">
<path d="M26.4584 17.2917C26.0875 17.2917 25.725 17.4053 25.4167 17.6182C25.1083 17.8311 24.868 18.1337 24.7261 18.4877C24.5842 18.8418 24.5471 19.2313 24.6194 19.6072C24.6917 19.983 24.8703 20.3282 25.1325 20.5992C25.3948 20.8702 25.7289 21.0547 26.0926 21.1295C26.4563 21.2042 26.8333 21.1658 27.1759 21.0192C27.5185 20.8726 27.8114 20.6242 28.0174 20.3056C28.2234 19.987 28.3334 19.6124 28.3334 19.2292C28.3334 18.7153 28.1358 18.2225 27.7842 17.8592C27.4326 17.4958 26.9557 17.2917 26.4584 17.2917ZM26.4584 19.875C26.3348 19.875 26.2139 19.8371 26.1111 19.7662C26.0084 19.6952 25.9283 19.5943 25.881 19.4763C25.8336 19.3583 25.8213 19.2285 25.8454 19.1032C25.8695 18.9779 25.929 18.8628 26.0164 18.7725C26.1038 18.6822 26.2152 18.6207 26.3364 18.5958C26.4577 18.5708 26.5833 18.5836 26.6976 18.6325C26.8118 18.6814 26.9094 18.7642 26.978 18.8704C27.0467 18.9766 27.0834 19.1015 27.0834 19.2292C27.0834 19.4005 27.0175 19.5647 26.9003 19.6859C26.7831 19.807 26.6241 19.875 26.4584 19.875ZM27.7084 5.66669H3.95837C3.12957 5.66669 2.33472 6.0069 1.74867 6.61249C1.16261 7.21807 0.833374 8.03943 0.833374 8.89585V20.5209C0.833227 21.2653 1.08199 21.9869 1.53756 22.5636C1.99313 23.1402 2.62752 23.5366 3.33337 23.6854V24.3959C3.33337 24.9097 3.53092 25.4025 3.88255 25.7659C4.23418 26.1292 4.71109 26.3334 5.20837 26.3334C5.70566 26.3334 6.18257 26.1292 6.5342 25.7659C6.88583 25.4025 7.08337 24.9097 7.08337 24.3959V23.75H24.5834V24.3959C24.5834 24.9097 24.7809 25.4025 25.1325 25.7659C25.4842 26.1292 25.9611 26.3334 26.4584 26.3334C26.9557 26.3334 27.4326 26.1292 27.7842 25.7659C28.1358 25.4025 28.3334 24.9097 28.3334 24.3959V23.6854C29.0392 23.5366 29.6736 23.1402 30.1292 22.5636C30.5848 21.9869 30.8335 21.2653 30.8334 20.5209V8.89585C30.8334 8.47179 30.7525 8.05189 30.5955 7.66011C30.4384 7.26832 30.2083 6.91234 29.9181 6.61249C29.6279 6.31263 29.2834 6.07477 28.9043 5.91249C28.5251 5.75021 28.1188 5.66669 27.7084 5.66669ZM5.83337 24.3959C5.83337 24.5671 5.76753 24.7314 5.65032 24.8525C5.53311 24.9736 5.37413 25.0417 5.20837 25.0417C5.04261 25.0417 4.88364 24.9736 4.76643 24.8525C4.64922 24.7314 4.58337 24.5671 4.58337 24.3959V23.75H5.83337V24.3959ZM22.0834 22.4584H3.95837C3.57153 22.4572 3.1945 22.3325 2.87896 22.1012C2.56342 21.87 2.32482 21.5436 2.19587 21.1667H22.0834V22.4584ZM22.0834 19.875H2.08337V9.54169H22.0834V19.875ZM22.0834 8.25002H2.19587C2.32482 7.87314 2.56342 7.54671 2.87896 7.31546C3.1945 7.08421 3.57153 6.95948 3.95837 6.95835H22.0834V8.25002ZM27.0834 24.3959C27.0834 24.5671 27.0175 24.7314 26.9003 24.8525C26.7831 24.9736 26.6241 25.0417 26.4584 25.0417C26.2926 25.0417 26.1336 24.9736 26.0164 24.8525C25.8992 24.7314 25.8334 24.5671 25.8334 24.3959V23.75H27.0834V24.3959ZM29.5834 20.5209C29.5834 21.0347 29.3858 21.5275 29.0342 21.8909C28.6826 22.2542 28.2057 22.4584 27.7084 22.4584H23.3334V6.95835H27.7084C28.2057 6.95835 28.6826 7.16248 29.0342 7.52583C29.3858 7.88919 29.5834 8.382 29.5834 8.89585V20.5209ZM19.7959 17.9375C19.9616 17.9375 20.1206 17.8695 20.2378 17.7484C20.355 17.6272 20.4209 17.463 20.4209 17.2917V12.125C20.4209 11.9537 20.355 11.7895 20.2378 11.6683C20.1206 11.5472 19.9616 11.4792 19.7959 11.4792C19.6301 11.4792 19.4711 11.5472 19.3539 11.6683C19.2367 11.7895 19.1709 11.9537 19.1709 12.125V17.2917C19.1709 17.463 19.2367 17.6272 19.3539 17.7484C19.4711 17.8695 19.6301 17.9375 19.7959 17.9375ZM27.7084 13.4167H25.2084C25.0426 13.4167 24.8836 13.4847 24.7664 13.6058C24.6492 13.727 24.5834 13.8912 24.5834 14.0625C24.5834 14.2338 24.6492 14.3981 24.7664 14.5192C24.8836 14.6403 25.0426 14.7084 25.2084 14.7084H27.7084C27.8741 14.7084 28.0331 14.6403 28.1503 14.5192C28.2675 14.3981 28.3334 14.2338 28.3334 14.0625C28.3334 13.8912 28.2675 13.727 28.1503 13.6058C28.0331 13.4847 27.8741 13.4167 27.7084 13.4167ZM27.7084 8.25002H25.2084C25.0426 8.25002 24.8836 8.31806 24.7664 8.43918C24.6492 8.5603 24.5834 8.72457 24.5834 8.89585C24.5834 9.06714 24.6492 9.23141 24.7664 9.35253C24.8836 9.47364 25.0426 9.54169 25.2084 9.54169H27.7084C27.8741 9.54169 28.0331 9.47364 28.1503 9.35253C28.2675 9.23141 28.3334 9.06714 28.3334 8.89585C28.3334 8.72457 28.2675 8.5603 28.1503 8.43918C28.0331 8.31806 27.8741 8.25002 27.7084 8.25002ZM27.7084 10.8334H25.2084C25.0426 10.8334 24.8836 10.9014 24.7664 11.0225C24.6492 11.1436 24.5834 11.3079 24.5834 11.4792C24.5834 11.6505 24.6492 11.8147 24.7664 11.9359C24.8836 12.057 25.0426 12.125 25.2084 12.125H27.7084C27.8741 12.125 28.0331 12.057 28.1503 11.9359C28.2675 11.8147 28.3334 11.6505 28.3334 11.4792C28.3334 11.3079 28.2675 11.1436 28.1503 11.0225C28.0331 10.9014 27.8741 10.8334 27.7084 10.8334Z" fill="#333333"/>
</g>
<defs>
<clipPath id="clip0_1_538">
<rect width="30" height="31" fill="white" transform="translate(0.833374 0.5)"/>
</clipPath>
</defs>
</svg>
