<svg width="38" height="38" viewBox="0 0 38 38" fill="none" xmlns="http://www.w3.org/2000/svg">
<path d="M7.125 35.0312L15.4375 2.375C24.3972 2.755 31.0175 7.30313 35.625 15.4375L7.125 35.0312Z" stroke="#333333" stroke-width="2" stroke-linejoin="round"/>
<path d="M14.6062 5.62878C21.7713 7.51275 28.1601 11.6078 32.864 17.3316" stroke="#333333" stroke-width="2" stroke-linejoin="round"/>
<path d="M17.8125 13.0625C18.7963 13.0625 19.5938 12.265 19.5938 11.2812C19.5938 10.2975 18.7963 9.5 17.8125 9.5C16.8287 9.5 16.0312 10.2975 16.0312 11.2812C16.0312 12.265 16.8287 13.0625 17.8125 13.0625Z" stroke="#333333" stroke-width="2" stroke-linejoin="round"/>
<path d="M16.625 23.1562C17.9367 23.1562 19 22.0929 19 20.7812C19 19.4696 17.9367 18.4062 16.625 18.4062C15.3133 18.4062 14.25 19.4696 14.25 20.7812C14.25 22.0929 15.3133 23.1562 16.625 23.1562Z" stroke="#333333" stroke-width="2" stroke-linejoin="round"/>
<path d="M22.5625 17.8125C23.2183 17.8125 23.75 17.2808 23.75 16.625C23.75 15.9692 23.2183 15.4375 22.5625 15.4375C21.9067 15.4375 21.375 15.9692 21.375 16.625C21.375 17.2808 21.9067 17.8125 22.5625 17.8125Z" stroke="#333333" stroke-width="2" stroke-linejoin="round"/>
</svg>
