<svg width="39" height="42" viewBox="0 0 39 42" fill="none" xmlns="http://www.w3.org/2000/svg">
<path d="M7.50528 0.5C7.47146 0.50164 7.43783 0.505937 7.4047 0.512824C6.98561 0.512824 6.53429 0.529446 6.08297 0.590942C5.99881 0.602274 5.91773 0.630024 5.84439 0.672579C5.77105 0.715135 5.7069 0.771641 5.65562 0.838903C5.60433 0.906165 5.56693 0.982833 5.54556 1.0645C5.52418 1.14617 5.51926 1.23124 5.53107 1.31481L7.21127 13.3155H2.10103C1.63681 13.3155 1.1726 13.4757 0.801224 13.8024C0.599748 13.9837 0.439086 14.2052 0.329756 14.4525C0.220426 14.6998 0.164894 14.9672 0.166795 15.2373C0.166795 15.8266 0.428562 16.3403 0.801224 16.667C1.17389 16.995 1.63681 17.1578 2.10103 17.1578H7.65228L7.6742 17.2987C7.92565 18.9002 8.53816 22.8923 8.54847 22.9628V28.0401C8.54847 28.21 8.6164 28.3728 8.73732 28.493C8.85823 28.6131 9.02222 28.6806 9.19322 28.6806H11.1275V33.1724C11.1275 33.3423 11.1954 33.5052 11.3163 33.6253C11.4372 33.7454 11.6012 33.813 11.7722 33.813H15.6407V37.6565H12.4169C10.4621 37.6565 9.36601 38.2035 8.87343 39.0016C8.38084 39.8024 8.54847 40.6929 8.54847 40.8594C8.54847 41.0293 8.6164 41.1922 8.73732 41.3123C8.85823 41.4325 9.02222 41.5 9.19322 41.5H25.9566C26.1276 41.5 26.2916 41.4325 26.4125 41.3123C26.5334 41.1922 26.6013 41.0293 26.6013 40.8594C26.6013 40.6493 26.7251 39.7921 26.2183 39.0209C25.7116 38.2496 24.6374 37.7039 22.7483 37.6565C22.7432 37.6564 22.738 37.6564 22.7329 37.6565H19.5091V33.813H23.3776C23.5486 33.813 23.7126 33.7454 23.8335 33.6253C23.9544 33.5052 24.0223 33.3423 24.0223 33.1724V28.6806H24.818L27.9127 39.7486C27.9503 39.8839 28.0316 40.0033 28.1442 40.0882C28.2567 40.1732 28.3942 40.2191 28.5356 40.2188H36.288C36.6748 40.2188 37.1029 40.1048 37.4885 39.7934C37.874 39.4821 38.1667 38.9428 38.1667 38.2971C38.1667 37.6514 37.874 37.112 37.4885 36.8007C37.1501 36.5248 36.7257 36.3744 36.288 36.3753H30.9546L28.7432 28.6806H31.758C31.9277 28.6807 32.0905 28.6141 32.2112 28.4956C32.3319 28.3772 32.4007 28.2163 32.4027 28.0477C32.4027 28.0477 32.4247 26.6512 31.8031 25.2253C31.237 23.9262 30.0056 22.5605 27.8895 22.3222V18.4402C27.8895 17.1667 27.473 15.892 26.6026 14.9209C25.7322 13.9498 24.4002 13.3143 22.7316 13.3143H12.8812C13.161 13.0875 13.4227 12.853 13.642 12.5891C14.3112 11.7896 14.6581 10.7749 14.5059 9.66798L13.8612 4.8252C13.6806 3.512 12.8554 2.41537 11.7129 1.67357C10.5704 0.933055 9.10166 0.519254 7.50399 0.505161L7.50528 0.5ZM7.50012 1.78883H7.5027C8.87729 1.80164 10.1139 2.16556 11.0114 2.74721C11.9102 3.33014 12.4595 4.10138 12.5833 4.99692L13.228 9.8397C13.3338 10.6084 13.1352 11.1914 12.6503 11.7705C12.1861 12.3265 11.4253 12.8479 10.4492 13.3143H8.51366L6.90566 1.82214C7.10683 1.80933 7.30541 1.79016 7.50012 1.79016V1.78883ZM2.10103 14.5954H10.5008C10.5572 14.6029 10.6145 14.6029 10.671 14.5954H22.7329C24.0829 14.5954 25.0075 15.0669 25.6394 15.7715C26.2712 16.4762 26.6013 17.446 26.6013 18.439V22.2748H25.3118V19.7201C25.3118 18.9322 25.3118 17.9905 24.7522 17.1783C24.1938 16.3647 23.1133 15.8766 21.4434 15.8766H2.10103C1.93717 15.8717 1.77986 15.8115 1.65487 15.7061C1.53494 15.5998 1.45628 15.4769 1.45628 15.236C1.45628 14.9952 1.53365 14.8696 1.65487 14.7633C1.78022 14.659 1.93758 14.6002 2.10103 14.5967V14.5954ZM8.95595 17.1578H10.3267L11.1326 23.0089C11.1541 23.1622 11.2307 23.3024 11.3483 23.404C11.4659 23.5055 11.6164 23.5614 11.7722 23.5611H27.2461C29.2822 23.5611 30.1255 24.6027 30.6207 25.7391C30.9791 26.5603 30.9508 27.0049 30.9778 27.4046H9.83796V22.9205C9.83775 22.8888 9.83517 22.857 9.83023 22.8256C9.83023 22.8256 9.21643 18.8118 8.95595 17.1578ZM11.6291 17.1578H21.4421C22.8824 17.1578 23.4111 17.4985 23.6871 17.9008C23.9643 18.3031 24.0223 18.9642 24.0223 19.7201V22.2748H12.3331L11.6291 17.1578ZM14.9946 28.6806H20.1526V29.9695H14.9946V28.6806ZM12.4157 28.6935H13.7051V30.6152C13.7051 30.7851 13.7731 30.948 13.894 31.0681C14.0149 31.1883 14.1789 31.2558 14.3499 31.2558H20.7973C20.9683 31.2558 21.1323 31.1883 21.2532 31.0681C21.3741 30.948 21.4421 30.7851 21.4421 30.6152V28.6935H22.7316V32.537H12.4157V28.6935ZM26.1616 28.6935H27.4047L29.8495 37.1965C29.8886 37.3296 29.97 37.4465 30.0816 37.5297C30.1933 37.6128 30.329 37.6577 30.4685 37.6577H36.288C36.3795 37.6577 36.5652 37.7027 36.6774 37.7949C36.7909 37.8846 36.8773 37.987 36.8773 38.2971C36.8773 38.6071 36.7909 38.7071 36.6774 38.7968C36.5639 38.8799 36.4287 38.9288 36.288 38.9377H29.0268L26.1603 28.6883L26.1616 28.6935ZM16.9289 33.8181H18.2184V37.6617H16.9289V33.8181ZM12.4157 38.9428H22.7187C24.3834 38.9838 24.9224 39.3988 25.1377 39.7268C25.2319 39.869 25.1932 40.0613 25.2138 40.224H9.91017C9.92307 40.0446 9.88309 39.8241 9.97465 39.6755C10.1719 39.3552 10.6877 38.9428 12.4169 38.9428H12.4157Z" fill="#333333"/>
</svg>
