<svg width="30" height="30" viewBox="0 0 30 30" fill="none" xmlns="http://www.w3.org/2000/svg">
<g clip-path="url(#clip0_1_525)">
<path d="M21.7956 26.2463H8.91405C8.20344 26.2463 7.62531 25.5971 7.62531 24.7991V12.8369L5.55628 15.9333C5.28798 16.3355 4.88305 16.5663 4.4455 16.5663C4.09722 16.5663 3.76174 16.4166 3.50085 16.1448L1.99461 14.5863C1.41823 13.9886 1.33338 12.9269 1.8052 12.2193C2.93512 10.5287 3.71699 9.18509 4.34525 8.10546C6.44254 4.50142 6.82044 3.85204 12.2779 3.8078C12.3679 3.80831 12.4498 3.84762 12.504 3.91746C12.5581 3.98724 12.5766 4.07837 12.5539 4.16373C12.4891 4.40774 12.4562 4.65871 12.4562 4.90974C12.4562 6.50978 13.7593 7.81144 15.3609 7.81144H15.4836C17.0846 7.81144 18.387 6.50978 18.387 4.90974C18.387 4.65537 18.3546 4.4044 18.2907 4.16379C18.268 4.07843 18.2864 3.98741 18.3405 3.91751C18.3942 3.8483 18.4769 3.8078 18.5644 3.8078C18.5651 3.8078 18.5658 3.8078 18.5666 3.8078C23.9911 3.84983 24.3149 4.40258 26.422 7.99915C27.0416 9.05686 27.8128 10.3732 28.9238 12.0354C29.385 12.7273 29.302 13.7652 28.739 14.3493L27.2724 15.8695C27.0151 16.1341 26.6866 16.2794 26.3465 16.2794C25.9179 16.2794 25.5211 16.054 25.2579 15.6608L23.0828 12.4053V24.7991C23.0828 25.5971 22.5054 26.2463 21.7956 26.2463ZM7.90851 11.6201C7.93587 11.6201 7.96351 11.624 7.9907 11.6323C8.11004 11.6686 8.19166 11.7786 8.19166 11.9033V24.7991C8.19166 25.2847 8.5157 25.6799 8.91399 25.6799H21.7955C22.1931 25.6799 22.5164 25.2847 22.5164 24.7991V11.4716C22.5164 11.3468 22.598 11.2367 22.7174 11.2005C22.8366 11.1643 22.9658 11.2104 23.0351 11.3143L25.7287 15.3459C25.8848 15.5791 26.1101 15.7129 26.3465 15.7129C26.5349 15.7129 26.7144 15.6308 26.8654 15.4754L28.3312 13.9561C28.7132 13.5598 28.7688 12.8243 28.4526 12.3499C27.3326 10.674 26.5566 9.34963 25.9333 8.28552C23.9277 4.86228 23.6761 4.4326 18.913 4.37749C18.9399 4.55251 18.9534 4.73042 18.9534 4.90969C18.9534 6.82204 17.3969 8.37779 15.4836 8.37779H15.3609C13.4469 8.37779 11.8898 6.82199 11.8898 4.90969C11.8898 4.73172 11.9037 4.55387 11.931 4.37777C7.13429 4.43855 6.83664 4.95041 4.83485 8.39031C4.20263 9.47673 3.41583 10.8288 2.27634 12.5337C1.94969 13.0235 2.00729 13.7834 2.40214 14.1929L3.90889 15.7518C4.06482 15.9143 4.25015 15.9999 4.4455 15.9998C4.69053 15.9998 4.92372 15.8609 5.08526 15.6187L7.67306 11.7459C7.72652 11.6659 7.81568 11.6201 7.90851 11.6201Z" fill="#333333"/>
</g>
<defs>
<clipPath id="clip0_1_525">
<rect width="29" height="29" fill="white" transform="translate(0.833374 0.5)"/>
</clipPath>
</defs>
</svg>
