<svg width="46" height="46" viewBox="0 0 46 46" fill="none" xmlns="http://www.w3.org/2000/svg">
<path d="M30.6646 21.8692C30.7743 18.9715 30.2981 16.0819 29.2657 13.3809C28.2334 10.68 26.667 8.22575 24.6646 6.17168L23.3334 4.83002L22.0021 6.17168C20.0779 8.12316 18.5531 10.4467 17.5165 13.0069C16.4799 15.5671 15.9524 18.3126 15.9646 21.0834C15.9646 21.3517 15.9646 21.62 15.9646 21.8692C13.0917 20.1099 9.80735 19.1763 6.45837 19.1667H4.58337V21.0834C4.58332 25.8349 6.30981 30.417 9.42792 33.9409C12.546 37.4647 16.8334 39.679 21.4584 40.1542V40.25H25.2084V40.1542C29.8333 39.679 34.1207 37.4647 37.2388 33.9409C40.3569 30.417 42.0834 25.8349 42.0834 21.0834V19.1667H40.2084C36.8467 19.1693 33.5485 20.1033 30.6646 21.8692ZM23.3334 10.4075C24.9428 12.5012 26.0562 14.9473 26.5864 17.5543C27.1167 20.1612 27.0493 22.8583 26.3896 25.4342C25.1575 26.8075 24.128 28.3571 23.3334 30.0342C22.5388 28.3571 21.5092 26.8075 20.2771 25.4342C19.9106 24.014 19.7216 22.5521 19.7146 21.0834C19.701 17.2081 20.9771 13.4433 23.3334 10.4075ZM8.46462 23.1342C11.7216 23.5828 14.7443 25.1124 17.0681 27.4879C19.3919 29.8633 20.8883 32.9532 21.3271 36.2825C18.0702 35.8339 15.0475 34.3043 12.7237 31.9288C10.3998 29.5534 8.9035 26.4635 8.46462 23.1342ZM25.3396 36.2825C25.7785 32.9532 27.2748 29.8633 29.5987 27.4879C31.9225 25.1124 34.9452 23.5828 38.2021 23.1342C37.7633 26.4635 36.2669 29.5534 33.9431 31.9288C31.6193 34.3043 28.5966 35.8339 25.3396 36.2825Z" fill="#333333"/>
</svg>
