<svg width="30" height="30" viewBox="0 0 30 30" fill="none" xmlns="http://www.w3.org/2000/svg">
<g clip-path="url(#clip0_1_478)">
<path d="M17.1858 6.35693C16.2712 6.68386 15.2344 7.05429 15.2344 7.97075C15.2344 8.09507 15.2838 8.2143 15.3717 8.30221C15.4596 8.39012 15.5788 8.4395 15.7031 8.4395C15.8274 8.4395 15.9467 8.39012 16.0346 8.30221C16.1225 8.2143 16.1719 8.09507 16.1719 7.97075C16.1719 7.71502 17.0041 7.41786 17.5012 7.24021C18.4161 6.91327 19.4531 6.54261 19.4531 5.62592C19.4531 4.70923 18.4163 4.33857 17.5014 4.01164C17.0041 3.83398 16.1719 3.53658 16.1719 3.28062C16.1719 3.02535 17.0041 2.72818 17.5012 2.55075C18.4163 2.22405 19.4531 1.85385 19.4531 0.937622C19.4531 0.813302 19.4037 0.694073 19.3158 0.606166C19.2279 0.518258 19.1087 0.468872 18.9844 0.468872C18.8601 0.468872 18.7408 0.518258 18.6529 0.606166C18.565 0.694073 18.5156 0.813302 18.5156 0.937622C18.5156 1.19289 17.6834 1.49006 17.1863 1.66749C16.2712 1.99419 15.2344 2.36439 15.2344 3.28062C15.2344 4.19731 16.2712 4.56797 17.1861 4.8949C17.6834 5.07257 18.5156 5.36996 18.5156 5.62592C18.5156 5.88188 17.6832 6.17927 17.1858 6.35693ZM12.4983 6.35693C11.5837 6.68386 10.5469 7.05429 10.5469 7.97075C10.5469 8.09507 10.5963 8.2143 10.6842 8.30221C10.7721 8.39012 10.8913 8.4395 11.0156 8.4395C11.1399 8.4395 11.2592 8.39012 11.3471 8.30221C11.435 8.2143 11.4844 8.09507 11.4844 7.97075C11.4844 7.71502 12.3166 7.41786 12.8137 7.24021C13.7286 6.91327 14.7656 6.54261 14.7656 5.62592C14.7656 4.70923 13.7288 4.33857 12.8139 4.01164C12.3166 3.83398 11.4844 3.53658 11.4844 3.28062C11.4844 3.02535 12.3166 2.72818 12.8137 2.55075C13.7288 2.22405 14.7656 1.85385 14.7656 0.937622C14.7656 0.813302 14.7162 0.694073 14.6283 0.606166C14.5404 0.518258 14.4212 0.468872 14.2969 0.468872C14.1726 0.468872 14.0533 0.518258 13.9654 0.606166C13.8775 0.694073 13.8281 0.813302 13.8281 0.937622C13.8281 1.19289 12.9959 1.49006 12.4988 1.66749C11.5837 1.99419 10.5469 2.36439 10.5469 3.28062C10.5469 4.19731 11.5837 4.56797 12.4986 4.8949C12.9959 5.07257 13.8281 5.36996 13.8281 5.62592C13.8281 5.88188 12.9957 6.17927 12.4983 6.35693ZM26.4113 21.1601C26.3079 21.4566 26.1944 21.7519 26.0656 22.0445C27.9947 22.565 29.0625 23.172 29.0625 23.6781C29.0625 24.5068 26.2016 25.6062 21.3769 26.1528C26.5391 22.7343 26.5678 16.8751 26.0174 13.3628H28.7471C28.7964 13.3588 28.846 13.366 28.8921 13.3838C28.9383 13.4016 28.9799 13.4296 29.0138 13.4656C29.0385 13.503 29.0546 13.5453 29.061 13.5897C29.0673 13.634 29.0638 13.6792 29.0506 13.722L27.7471 18.8728C27.6954 19.0364 27.5948 19.1802 27.4589 19.2849C27.3229 19.3896 27.1582 19.4501 26.9868 19.4582H26.6876C26.5634 19.4585 26.4445 19.508 26.3568 19.5959C26.2691 19.6838 26.2198 19.8029 26.2198 19.9271C26.2198 20.0513 26.2691 20.1704 26.3568 20.2583C26.4445 20.3462 26.5634 20.3957 26.6876 20.396H26.9868C27.3675 20.3874 27.7353 20.2567 28.036 20.0231C28.3367 19.7895 28.5544 19.4655 28.6569 19.0988L29.9604 13.9478C30.0085 13.7665 30.0145 13.5766 29.9782 13.3926C29.9418 13.2086 29.8639 13.0353 29.7505 12.8859C29.6293 12.7379 29.4759 12.6194 29.3021 12.5396C29.1282 12.4597 28.9384 12.4205 28.7471 12.4251H25.8481C25.7171 11.7633 25.5456 11.1102 25.3345 10.4695L25.3342 10.4692C25.2725 10.2885 25.1561 10.1314 25.0011 10.0198C24.8461 9.90819 24.6603 9.84754 24.4693 9.84627H5.5307C5.33967 9.84757 5.15377 9.90826 4.99875 10.0199C4.84374 10.1316 4.72729 10.2887 4.66553 10.4695C4.50917 10.9197 1.06971 21.1505 8.62292 26.1528C3.79832 25.6062 0.9375 24.5068 0.9375 23.6781C0.9375 23.1717 2.00676 22.5642 3.93827 22.0435C3.80934 21.7509 3.69584 21.4556 3.5924 21.1591C1.4024 21.775 0 22.6173 0 23.6781C0 24.777 1.5051 25.6413 3.83171 26.2625C4.39664 26.6864 6.58055 28.1959 10.0214 29.0136C11.489 29.3599 12.992 29.5336 14.4999 29.5312C17.7161 29.5312 21.6735 28.7574 26.0858 26.284C28.459 25.6614 30 24.7898 30 23.6781C30 22.6179 28.5991 21.776 26.4113 21.1601ZM5.5307 10.784L24.448 10.7755L24.4489 10.7774C24.6016 11.2174 28.0779 21.5512 19.9555 25.9126C19.5405 26.1367 19.0766 26.255 18.6049 26.2569H11.3951C10.9235 26.2549 10.4597 26.1368 10.0447 25.9128C1.92101 21.5505 5.39909 11.2149 5.5307 10.784ZM10.2839 28.112C9.0362 27.8195 7.82345 27.3941 6.66641 26.8431C9.42573 27.2464 12.2114 27.4423 15 27.4291C17.5189 27.4372 20.0357 27.2804 22.5341 26.9596C17.4183 29.0267 13.1494 28.785 10.2839 28.112V28.112Z" fill="#333333"/>
<path d="M15 21.8025C15.6492 21.8027 16.2838 21.6104 16.8237 21.2498C17.3636 20.8893 17.7844 20.3768 18.0329 19.777C18.2815 19.1773 18.3466 18.5174 18.22 17.8806C18.0935 17.2439 17.781 16.659 17.322 16.1999C16.863 15.7408 16.2782 15.4281 15.6415 15.3014C15.0048 15.1747 14.3448 15.2396 13.7451 15.488C13.1453 15.7364 12.6326 16.1571 12.2719 16.6969C11.9113 17.2366 11.7188 17.8712 11.7188 18.5204C11.7196 19.3905 12.0656 20.2247 12.6807 20.84C13.2958 21.4553 14.1299 21.8014 15 21.8025ZM15 16.176C15.4637 16.1759 15.917 16.3133 16.3026 16.5708C16.6883 16.8284 16.9888 17.1945 17.1664 17.6228C17.3439 18.0512 17.3904 18.5226 17.3 18.9774C17.2096 19.4322 16.9864 19.85 16.6586 20.1779C16.3307 20.5058 15.913 20.7292 15.4582 20.8197C15.0034 20.9102 14.532 20.8638 14.1036 20.6864C13.6752 20.509 13.309 20.2085 13.0514 19.8229C12.7938 19.4374 12.6562 18.9841 12.6562 18.5204C12.6569 17.899 12.904 17.3031 13.3434 16.8636C13.7828 16.4241 14.3785 16.1768 15 16.176V16.176Z" fill="#333333"/>
</g>
<defs>
<clipPath id="clip0_1_478">
<rect width="30" height="30" fill="white"/>
</clipPath>
</defs>
</svg>
