<svg width="44" height="42" viewBox="0 0 44 42" fill="none" xmlns="http://www.w3.org/2000/svg">
<path d="M21.6671 18.0601C19.9901 18.0601 18.6571 19.3621 18.6571 21.0001C18.6571 22.6381 19.9901 23.9401 21.6671 23.9401C23.3441 23.9401 24.6771 22.6381 24.6771 21.0001C24.6771 19.3621 23.3441 18.0601 21.6671 18.0601ZM21.6671 22.2601C20.9361 22.2601 20.3771 21.6721 20.3771 21.0001C20.3771 20.2861 20.9361 19.7401 21.6671 19.7401C22.3981 19.7401 22.9571 20.2861 22.9571 21.0001C22.9571 21.6721 22.3981 22.2601 21.6671 22.2601ZM21.6671 2.1001C11.0031 2.1001 2.31714 10.5841 2.31714 21.0001C2.31714 31.4161 11.0031 39.9001 21.6671 39.9001C32.3311 39.9001 41.0171 31.4161 41.0171 21.0001C41.0171 10.5841 32.3311 2.1001 21.6671 2.1001ZM21.6671 38.2201C11.9491 38.2201 4.03714 30.4921 4.03714 21.0001C4.03714 11.5081 11.9491 3.7801 21.6671 3.7801C31.3851 3.7801 39.2971 11.5081 39.2971 21.0001C39.2971 30.4921 31.3851 38.2201 21.6671 38.2201ZM21.6671 6.3001C13.3681 6.3001 6.61714 12.8941 6.61714 21.0001C6.61714 29.1061 13.3681 35.7001 21.6671 35.7001C29.9661 35.7001 36.7171 29.1061 36.7171 21.0001C36.7171 12.8941 29.9661 6.3001 21.6671 6.3001ZM34.6531 18.1021H27.1711L26.9991 17.8081L30.7401 11.4661C32.6751 13.2301 34.0511 15.4981 34.6531 18.1021V18.1021ZM21.6671 7.9801C23.0431 7.9801 24.3761 8.1901 25.6231 8.5681L21.8821 14.9101H21.4951L17.7541 8.5681C18.9581 8.1901 20.2911 7.9801 21.6671 7.9801V7.9801ZM12.5941 11.4661L16.3351 17.8081L16.1631 18.1021H8.68114C9.28314 15.4981 10.6591 13.2301 12.5941 11.4661ZM8.68114 23.8981H16.1631L16.3351 24.1921L12.5941 30.5341C10.6591 28.7701 9.28314 26.5021 8.68114 23.8981ZM21.6671 34.0201C20.2911 34.0201 18.9581 33.8101 17.7111 33.4321L21.4521 27.0901H21.8391L25.5801 33.4321C24.3761 33.8101 23.0431 34.0201 21.6671 34.0201V34.0201ZM30.7401 30.5341L26.9991 24.1921L27.1711 23.8981H34.6531C34.0511 26.5021 32.6751 28.7701 30.7401 30.5341ZM34.9541 22.2181H26.6551C26.3541 22.2181 26.0531 22.3861 25.9241 22.6381L25.2361 23.7721C25.0641 24.0241 25.0641 24.3601 25.2361 24.6121L29.3641 31.5841C29.1491 31.7521 28.8911 31.9201 28.6331 32.0461L27.9021 32.4661C27.6871 32.5921 27.4291 32.7181 27.1711 32.8021L23.0431 25.8301C22.9141 25.5781 22.6131 25.4101 22.3121 25.4101H20.9361C20.6351 25.4101 20.3341 25.5781 20.2051 25.8301L16.0771 32.8021C15.8191 32.6761 15.6041 32.5921 15.3461 32.4661L14.6151 32.0461C14.3571 31.8781 14.1421 31.7521 13.8841 31.5841L18.0121 24.6121C18.1841 24.3601 18.1841 24.0241 18.0121 23.7721L17.3241 22.6381C17.1521 22.3861 16.8941 22.2181 16.5931 22.2181H8.38014C8.38014 21.9661 8.33714 21.6721 8.33714 21.4201V20.5801C8.33714 20.3281 8.38014 20.0341 8.38014 19.7821H16.6361C16.9371 19.7821 17.2381 19.6141 17.3671 19.3621L18.0551 18.2281C18.2271 17.9761 18.2271 17.6401 18.0551 17.3881L13.9271 10.3741C14.1421 10.2061 14.4001 10.0381 14.6581 9.9121L15.3461 9.5341C15.5611 9.4081 15.8191 9.2821 16.0771 9.1981L20.2051 16.2121C20.3341 16.4641 20.6351 16.6321 20.9361 16.6321H22.3121C22.6131 16.6321 22.9141 16.4641 23.0431 16.2121L27.1711 9.1981C27.4291 9.3241 27.6441 9.4081 27.9021 9.5341L28.5901 9.9121C28.8481 10.0801 29.0631 10.2061 29.3211 10.3741L25.1931 17.3881C25.0211 17.6401 25.0211 17.9761 25.1931 18.2281L25.8811 19.3621C26.0531 19.6141 26.3111 19.7821 26.6121 19.7821H34.8681C34.9111 20.0341 34.9111 20.3281 34.9111 20.5801V21.4201C34.9971 21.6721 34.9541 21.9241 34.9541 22.2181V22.2181Z" fill="#333333"/>
</svg>
