<svg width="69" height="71" viewBox="0 0 69 71" fill="none" xmlns="http://www.w3.org/2000/svg">
<path d="M67.8143 35.2342C67.8143 54.2438 52.8024 69.6319 34.3114 69.6319C15.8205 69.6319 0.808594 54.2438 0.808594 35.2342C0.808594 16.2246 15.8205 0.836548 34.3114 0.836548C52.8024 0.836548 67.8143 16.2246 67.8143 35.2342Z" stroke="white"/>
<ellipse cx="34.3112" cy="35.2334" rx="29.9225" ry="30.7099" fill="#075E93" fill-opacity="0.75"/>
<path d="M49.725 20.6266C49.6328 21.0782 49.5831 21.5444 49.4411 21.9814C49.2637 22.5204 49.065 23.0594 48.7811 23.5474C47.0353 26.6211 45.2611 29.6802 43.494 32.7393C43.423 32.8631 43.3378 32.9869 43.2243 33.0671C43.0114 33.2127 42.7843 33.1108 42.614 32.8194C41.7765 31.37 40.9391 29.9133 40.1017 28.4638C39.172 26.8469 38.2423 25.2299 37.3055 23.6129C34.9423 19.505 37.1565 14.3409 41.7056 13.3503C41.9469 13.2993 42.1882 13.2629 42.4294 13.2119C42.8198 13.2119 43.2101 13.2119 43.6004 13.2119C43.6572 13.2265 43.7211 13.2483 43.7778 13.2556C46.5314 13.5979 48.7457 15.5354 49.4837 18.2595C49.5902 18.6601 49.647 19.0752 49.725 19.4831C49.725 19.8691 49.725 20.2479 49.725 20.6266ZM43.0469 31.8216C43.1249 31.6977 43.1817 31.5958 43.2385 31.4938C44.8353 28.7187 46.4321 25.9437 48.0289 23.1759C48.7102 21.996 48.9798 20.7286 48.8308 19.3666C48.4689 16.038 45.3746 13.6271 42.1456 14.1588C38.0507 14.8362 35.9287 19.4831 38.0365 23.1468C39.6475 25.951 41.2656 28.7552 42.8836 31.5594C42.9333 31.6395 42.983 31.7196 43.0469 31.8216Z" fill="white"/>
<path d="M35.5672 28.0695C34.822 28.9945 33.4523 29.2567 32.4162 28.0767C31.522 29.1256 30.1452 29.1329 29.2439 28.0767C28.2362 29.2421 26.8594 29.0163 26.0503 28.0112C25.9793 28.1132 25.9297 28.2224 25.8516 28.3025C25.2626 28.8561 24.5813 29.0236 23.8361 28.7396C23.0625 28.4409 22.6296 27.8364 22.5303 27.006C22.5019 26.773 22.5658 26.5108 22.6509 26.2923C23.2187 24.8428 23.7935 23.4007 24.3755 21.9585C24.78 20.9679 25.5039 20.4362 26.5542 20.4362C29.0878 20.4289 31.6214 20.4362 34.1549 20.4362C34.2188 20.4362 34.2827 20.4362 34.3395 20.4508C34.5666 20.5018 34.7014 20.6474 34.6872 20.8951C34.673 21.1354 34.5382 21.2884 34.304 21.2957C33.9917 21.3103 33.6865 21.3103 33.3743 21.303C33.1827 21.2957 33.1117 21.3467 33.0975 21.5579C33.0265 23.0729 32.9485 24.5879 32.8775 26.1029C32.8633 26.4015 32.8349 26.7074 32.8775 26.9988C32.9627 27.596 33.4382 27.9966 33.9988 27.9966C34.5524 27.9966 35.0491 27.5887 35.1059 26.9915C35.1556 26.4816 35.1059 25.9572 35.0846 25.4474C35.0704 25.0031 35.0349 24.5588 35.0137 24.1145C34.9995 23.7721 35.1556 23.5755 35.4253 23.5682C35.6879 23.5609 35.844 23.743 35.8582 24.0707C35.9079 24.9885 35.9575 25.9062 36.0072 26.8167C36.0498 27.4941 36.4685 27.9311 37.1356 28.0039C37.4195 28.033 37.5898 28.2151 37.5685 28.4773C37.5472 28.725 37.3698 28.8852 37.093 28.8779C36.5892 28.8634 36.1633 28.6667 35.8014 28.3171C35.7304 28.237 35.6595 28.1569 35.5672 28.0695ZM29.7904 21.303C29.2581 21.303 28.7755 21.3103 28.2858 21.2957C28.1013 21.2884 28.0445 21.3685 28.002 21.5288C27.5265 23.2186 27.0439 24.9084 26.5684 26.5982C26.54 26.7074 26.5258 26.8312 26.54 26.9405C26.6323 27.5669 27.1007 27.9893 27.6755 27.9893C28.2432 27.9893 28.6974 27.5596 28.8039 26.9332C28.9884 25.8625 29.1729 24.7918 29.3575 23.7211C29.4994 22.9272 29.6413 22.1406 29.7904 21.303ZM30.6562 21.3175C30.6349 21.4049 30.6136 21.4923 30.5994 21.5797C30.3084 23.2186 30.0246 24.8647 29.7265 26.5035C29.5987 27.2246 30.0175 27.8874 30.6775 27.9821C31.3517 28.084 31.9336 27.5596 31.9833 26.8021C32.0543 25.5857 32.1181 24.3694 32.1891 23.1603C32.2246 22.5558 32.2459 21.9512 32.2743 21.3248C31.7278 21.3175 31.1955 21.3175 30.6562 21.3175ZM27.1787 21.303C26.9232 21.303 26.7032 21.2957 26.4832 21.303C25.8445 21.3248 25.4187 21.6599 25.1774 22.2498C24.5884 23.6993 24.0064 25.1487 23.4387 26.6054C23.3819 26.7438 23.3677 26.9332 23.4032 27.0789C23.538 27.6616 24.0277 28.0258 24.5884 27.9893C25.1277 27.9529 25.5748 27.4941 25.6458 26.9041C25.6671 26.722 25.6955 26.5472 25.7452 26.3724C26.1355 25.0031 26.5258 23.641 26.9161 22.2717C27.0013 21.9658 27.0865 21.6526 27.1787 21.303Z" fill="white"/>
<path d="M42.621 40.241C42.621 40.1172 42.621 40.0152 42.621 39.906C42.621 38.1069 42.621 36.3079 42.621 34.5088C42.621 34.3923 42.621 34.2684 42.6494 34.1592C42.7132 33.9334 42.8765 33.8387 43.0965 33.8606C43.3094 33.8824 43.43 34.0135 43.4584 34.2247C43.4655 34.3049 43.4655 34.385 43.4655 34.4724C43.4655 36.4827 43.4655 38.4857 43.4655 40.4959C43.4655 41.0204 43.352 41.1296 42.841 41.1296C36.9435 41.1296 31.046 41.1296 25.1485 41.1296C24.6446 41.1296 24.5311 41.0131 24.5311 40.4887C24.5311 36.9561 24.5311 33.4163 24.5311 29.8837C24.5311 29.7963 24.524 29.7016 24.5382 29.6142C24.5666 29.3957 24.6943 29.2719 24.9072 29.25C25.113 29.2282 25.2762 29.3229 25.3401 29.5268C25.3756 29.6433 25.3827 29.7744 25.3827 29.9056C25.3827 33.2415 25.3827 36.5774 25.3827 39.9133C25.3827 40.0225 25.3827 40.1318 25.3827 40.2556C31.1241 40.241 36.8512 40.241 42.621 40.241Z" fill="white"/>
<path d="M27.8685 36.6075C27.8685 35.6752 27.826 34.7356 27.8756 33.8033C27.9608 32.1937 29.2453 30.9846 30.7996 30.9919C32.3467 30.9991 33.6596 32.2374 33.7022 33.8325C33.7518 35.7262 33.7235 37.6272 33.7164 39.5283C33.7164 39.8196 33.5318 40.0017 33.2764 39.9944C33.028 39.9871 32.8718 39.805 32.8718 39.4918C32.8718 37.6782 32.8718 35.8573 32.8718 34.0437C32.8647 32.9584 32.1763 32.099 31.1544 31.895C30.026 31.6619 28.8692 32.5214 28.7273 33.6941C28.706 33.8762 28.6989 34.0583 28.6989 34.2403C28.6989 35.9374 28.6989 37.6345 28.6989 39.3389C28.6989 39.4481 28.706 39.5574 28.6847 39.6666C28.6421 39.8779 28.5073 39.9944 28.2944 40.0017C28.0815 40.009 27.9395 39.8997 27.8827 39.6885C27.8544 39.5865 27.8544 39.47 27.8544 39.368C27.8544 38.4503 27.8544 37.5325 27.8544 36.6148C27.8615 36.6075 27.8685 36.6075 27.8685 36.6075Z" fill="white"/>
<path d="M38.4055 36.9495C37.6533 36.9495 36.901 36.9495 36.1487 36.9495C35.7513 36.9495 35.6094 36.8039 35.6094 36.3887C35.6094 35.1723 35.6094 33.956 35.6094 32.7396C35.6094 32.3099 35.7513 32.1642 36.17 32.1642C37.6675 32.1642 39.1578 32.1642 40.6552 32.1642C41.0882 32.1642 41.223 32.3099 41.223 32.7614C41.223 33.9705 41.223 35.1796 41.223 36.3814C41.223 36.8111 41.0882 36.9495 40.6623 36.9495C39.9101 36.9495 39.1578 36.9495 38.4055 36.9495ZM40.3501 33.0528C39.0514 33.0528 37.7668 33.0528 36.4752 33.0528C36.4752 34.0652 36.4752 35.0631 36.4752 36.0609C37.7739 36.0609 39.0585 36.0609 40.3501 36.0609C40.3501 35.0558 40.3501 34.0579 40.3501 33.0528Z" fill="white"/>
<path d="M38.3775 38.4208C37.4123 38.4208 36.4471 38.4208 35.482 38.4208C35.2549 38.4208 35.0775 38.3552 34.9994 38.1222C34.9213 37.8818 35.0491 37.6414 35.2975 37.5759C35.3968 37.5468 35.5104 37.5468 35.6097 37.5468C37.4762 37.5468 39.3427 37.5468 41.2091 37.5468C41.273 37.5468 41.3369 37.5468 41.3937 37.5468C41.6633 37.5759 41.8408 37.758 41.8337 37.9983C41.8266 38.246 41.6562 38.4135 41.3724 38.4135C40.3788 38.4208 39.3782 38.4208 38.3775 38.4208Z" fill="white"/>
<path d="M31.5073 36.3435C31.7273 36.3507 31.926 36.562 31.9189 36.7878C31.9118 37.0208 31.7202 37.2102 31.486 37.2029C31.2518 37.1956 31.0673 36.999 31.0744 36.7659C31.0815 36.5401 31.2873 36.3362 31.5073 36.3435Z" fill="white"/>
<path d="M43.0335 15.9071C45.269 15.8998 47.0858 17.7499 47.1 20.0588C47.1142 22.3458 45.2903 24.225 43.0619 24.2323C40.8051 24.2396 38.9883 22.3823 38.9883 20.0734C38.9883 17.7717 40.7909 15.9144 43.0335 15.9071ZM39.8399 20.0661C39.8399 21.887 41.2735 23.3583 43.0477 23.3583C44.8148 23.3583 46.2626 21.8724 46.2555 20.0588C46.2413 18.2597 44.8077 16.7884 43.0548 16.7812C41.2877 16.7666 39.8399 18.2525 39.8399 20.0661Z" fill="white"/>
<path d="M15.9258 51.9384V46.3547H16.8476L18.646 50.0616L20.4444 46.3547H21.3662V51.9384H20.4066V48.6037L18.8274 51.9384H18.4647L16.8854 48.6037V51.9384H15.9258Z" fill="white"/>
<path d="M24.482 52.0547C24.079 52.0547 23.7151 51.9823 23.3902 51.8375C23.0678 51.6902 22.8021 51.4808 22.593 51.2094C22.3865 50.9354 22.2555 50.6097 22.2001 50.2322L23.2731 50.0694C23.3486 50.3899 23.5048 50.6368 23.7415 50.81C23.9783 50.9832 24.2478 51.0698 24.55 51.0698C24.7188 51.0698 24.8825 51.0426 25.0412 50.9884C25.1999 50.9341 25.3296 50.8539 25.4303 50.748C25.5336 50.642 25.5852 50.5114 25.5852 50.3563C25.5852 50.2995 25.5764 50.2452 25.5588 50.1935C25.5437 50.1392 25.5172 50.0888 25.4795 50.0422C25.4417 49.9957 25.3875 49.9518 25.317 49.9104C25.249 49.8691 25.1621 49.8316 25.0563 49.798L23.6433 49.3714C23.5375 49.3404 23.4141 49.2965 23.2731 49.2396C23.1345 49.1827 22.9998 49.1013 22.8688 48.9953C22.7378 48.8893 22.6283 48.7497 22.5401 48.5765C22.4545 48.4008 22.4116 48.1797 22.4116 47.9135C22.4116 47.5387 22.5036 47.2272 22.6874 46.979C22.8713 46.7308 23.1169 46.546 23.4242 46.4245C23.7315 46.303 24.0715 46.2436 24.4443 46.2462C24.8196 46.2513 25.1545 46.3172 25.4492 46.4439C25.7439 46.5706 25.9908 46.7554 26.1897 46.9984C26.3887 47.2388 26.5323 47.5335 26.6204 47.8825L25.5097 48.0763C25.4694 47.8954 25.3951 47.7429 25.2868 47.6188C25.1785 47.4947 25.0488 47.4004 24.8976 47.3357C24.749 47.2711 24.5929 47.2362 24.4292 47.231C24.268 47.2259 24.1156 47.2491 23.972 47.3008C23.831 47.35 23.7151 47.4223 23.6244 47.518C23.5363 47.6136 23.4922 47.7274 23.4922 47.8592C23.4922 47.9807 23.5287 48.0802 23.6017 48.1578C23.6748 48.2327 23.7667 48.2935 23.8775 48.34C23.9884 48.3865 24.1017 48.4253 24.2176 48.4563L25.1621 48.72C25.3032 48.7588 25.4593 48.8105 25.6306 48.8751C25.8019 48.9372 25.9656 49.025 26.1217 49.1388C26.2804 49.2499 26.4101 49.3973 26.5109 49.5808C26.6141 49.7644 26.6658 49.997 26.6658 50.2788C26.6658 50.5786 26.6041 50.841 26.4807 51.0659C26.3598 51.2882 26.196 51.4731 25.9895 51.6204C25.783 51.7652 25.5487 51.8737 25.2868 51.9461C25.0273 52.0185 24.7591 52.0547 24.482 52.0547Z" fill="white"/>
<path d="M27.4962 51.9384V46.3547H29.7933C29.8462 46.3547 29.9167 46.3573 30.0049 46.3625C30.0955 46.3651 30.1761 46.3728 30.2466 46.3857C30.5716 46.4374 30.8373 46.5473 31.0438 46.7153C31.2529 46.8834 31.4065 47.0953 31.5048 47.3513C31.603 47.6046 31.6521 47.8876 31.6521 48.2004C31.6521 48.5132 31.6017 48.7976 31.501 49.0535C31.4027 49.3068 31.2491 49.5175 31.04 49.6855C30.8335 49.8535 30.569 49.9634 30.2466 50.0151C30.1761 50.0254 30.0955 50.0332 30.0049 50.0384C29.9142 50.0435 29.8437 50.0461 29.7933 50.0461H28.5238V51.9384H27.4962ZM28.5238 49.0612H29.7479C29.8008 49.0612 29.8588 49.0587 29.9217 49.0535C29.9847 49.0483 30.0426 49.038 30.0955 49.0225C30.2341 48.9837 30.3411 48.9191 30.4167 48.8286C30.4922 48.7355 30.5439 48.6334 30.5716 48.5223C30.6018 48.4085 30.6169 48.3012 30.6169 48.2004C30.6169 48.0996 30.6018 47.9936 30.5716 47.8825C30.5439 47.7687 30.4922 47.6666 30.4167 47.5761C30.3411 47.4831 30.2341 47.4172 30.0955 47.3784C30.0426 47.3629 29.9847 47.3525 29.9217 47.3474C29.8588 47.3422 29.8008 47.3396 29.7479 47.3396H28.5238V49.0612Z" fill="white"/>
<path d="M34.7455 52.0547C34.2015 52.0547 33.7317 51.9332 33.3363 51.6902C32.9434 51.4472 32.6399 51.1073 32.4258 50.6704C32.2142 50.2335 32.1084 49.7256 32.1084 49.1465C32.1084 48.5675 32.2142 48.0595 32.4258 47.6227C32.6399 47.1858 32.9434 46.8459 33.3363 46.6029C33.7317 46.3599 34.2015 46.2384 34.7455 46.2384C35.2896 46.2384 35.7581 46.3599 36.151 46.6029C36.5464 46.8459 36.8499 47.1858 37.0615 47.6227C37.2756 48.0595 37.3826 48.5675 37.3826 49.1465C37.3826 49.7256 37.2756 50.2335 37.0615 50.6704C36.8499 51.1073 36.5464 51.4472 36.151 51.6902C35.7581 51.9332 35.2896 52.0547 34.7455 52.0547ZM34.7455 51.062C35.0906 51.0672 35.3777 50.9909 35.6069 50.8333C35.8361 50.6756 36.0074 50.452 36.1208 50.1625C36.2366 49.8729 36.2946 49.5343 36.2946 49.1465C36.2946 48.7588 36.2366 48.4227 36.1208 48.1384C36.0074 47.854 35.8361 47.633 35.6069 47.4753C35.3777 47.3176 35.0906 47.2362 34.7455 47.231C34.4005 47.2259 34.1133 47.3021 33.8841 47.4598C33.6549 47.6175 33.4824 47.8411 33.3665 48.1306C33.2532 48.4202 33.1965 48.7588 33.1965 49.1465C33.1965 49.5343 33.2532 49.8703 33.3665 50.1547C33.4824 50.439 33.6549 50.6601 33.8841 50.8178C34.1133 50.9754 34.4005 51.0569 34.7455 51.062Z" fill="white"/>
<path d="M40.1921 52.0547C39.7891 52.0547 39.4252 51.9823 39.1003 51.8375C38.7779 51.6902 38.5121 51.4808 38.3031 51.2094C38.0965 50.9354 37.9656 50.6097 37.9102 50.2322L38.9831 50.0694C39.0587 50.3899 39.2149 50.6368 39.4516 50.81C39.6884 50.9832 39.9579 51.0698 40.2601 51.0698C40.4289 51.0698 40.5926 51.0426 40.7513 50.9884C40.91 50.9341 41.0397 50.8539 41.1404 50.748C41.2437 50.642 41.2953 50.5114 41.2953 50.3563C41.2953 50.2995 41.2865 50.2452 41.2689 50.1935C41.2538 50.1392 41.2273 50.0888 41.1895 50.0422C41.1518 49.9957 41.0976 49.9518 41.0271 49.9104C40.9591 49.8691 40.8722 49.8316 40.7664 49.798L39.3534 49.3714C39.2476 49.3404 39.1242 49.2965 38.9831 49.2396C38.8446 49.1827 38.7099 49.1013 38.5789 48.9953C38.4479 48.8893 38.3383 48.7497 38.2502 48.5765C38.1646 48.4008 38.1217 48.1797 38.1217 47.9135C38.1217 47.5387 38.2137 47.2272 38.3975 46.979C38.5814 46.7308 38.827 46.546 39.1343 46.4245C39.4415 46.303 39.7816 46.2436 40.1543 46.2462C40.5296 46.2513 40.8646 46.3172 41.1593 46.4439C41.454 46.5706 41.7008 46.7554 41.8998 46.9984C42.0988 47.2388 42.2424 47.5335 42.3305 47.8825L41.2198 48.0763C41.1795 47.8954 41.1052 47.7429 40.9969 47.6188C40.8886 47.4947 40.7588 47.4004 40.6077 47.3357C40.4591 47.2711 40.303 47.2362 40.1392 47.231C39.978 47.2259 39.8257 47.2491 39.6821 47.3008C39.541 47.35 39.4252 47.4223 39.3345 47.518C39.2463 47.6136 39.2023 47.7274 39.2023 47.8592C39.2023 47.9807 39.2388 48.0802 39.3118 48.1578C39.3849 48.2327 39.4768 48.2935 39.5876 48.34C39.6985 48.3865 39.8118 48.4253 39.9277 48.4563L40.8722 48.72C41.0132 48.7588 41.1694 48.8105 41.3407 48.8751C41.5119 48.9372 41.6757 49.025 41.8318 49.1388C41.9905 49.2499 42.1202 49.3973 42.221 49.5808C42.3242 49.7644 42.3759 49.997 42.3759 50.2788C42.3759 50.5786 42.3142 50.841 42.1907 51.0659C42.0698 51.2882 41.9061 51.4731 41.6996 51.6204C41.4931 51.7652 41.2588 51.8737 40.9969 51.9461C40.7374 52.0185 40.4692 52.0547 40.1921 52.0547Z" fill="white"/>
<path d="M43.1807 51.9384V50.8837H44.2083V51.9384H43.1807Z" fill="white"/>
<path d="M45.4348 51.9384V47.7506H46.3415V48.7743L46.2433 48.6425C46.2962 48.4977 46.3667 48.3659 46.4549 48.247C46.543 48.128 46.6513 48.0298 46.7798 47.9523C46.878 47.8902 46.985 47.8424 47.1009 47.8088C47.2168 47.7726 47.3364 47.7506 47.4598 47.7429C47.5832 47.7325 47.7067 47.7351 47.8301 47.7506V48.7355C47.7167 48.6993 47.5845 48.6877 47.4334 48.7006C47.2848 48.711 47.15 48.7459 47.0291 48.8053C46.9082 48.8622 46.8062 48.9384 46.7231 49.0341C46.64 49.1272 46.577 49.2383 46.5342 49.3676C46.4914 49.4942 46.47 49.6377 46.47 49.798V51.9384H45.4348Z" fill="white"/>
<path d="M50.0675 52.0624C49.7477 52.0624 49.487 52.0069 49.2855 51.8957C49.084 51.7845 48.9266 51.6437 48.8132 51.4731C48.7024 51.3024 48.623 51.1254 48.5752 50.9418C48.5273 50.7557 48.4984 50.5864 48.4883 50.4339C48.4782 50.2814 48.4732 50.1702 48.4732 50.1004V47.7506H49.5159V49.7282C49.5159 49.8238 49.521 49.9466 49.531 50.0965C49.5411 50.2439 49.5726 50.3925 49.6255 50.5424C49.6784 50.6924 49.764 50.8178 49.8824 50.9186C50.0033 51.0194 50.1733 51.0698 50.3925 51.0698C50.4806 51.0698 50.5751 51.0556 50.6758 51.0271C50.7766 50.9987 50.871 50.9444 50.9592 50.8643C51.0473 50.7816 51.1191 50.6614 51.1745 50.5037C51.2324 50.3434 51.2614 50.134 51.2614 49.8755L51.8508 50.1625C51.8508 50.4933 51.7853 50.8035 51.6543 51.0931C51.5234 51.3826 51.3256 51.6165 51.0612 51.7949C50.7992 51.9733 50.468 52.0624 50.0675 52.0624ZM51.3899 51.9384V50.5502H51.2614V47.7506H52.2966V51.9384H51.3899Z" fill="white"/>
</svg>
